<?xml version="1.0" encoding="utf-8"?>
<!-- Generator: Adobe Illustrator 24.0.0, SVG Export Plug-In . SVG Version: 6.00 Build 0)  -->
<svg version="1.1" id="Layer_1" xmlns="http://www.w3.org/2000/svg" xmlns:xlink="http://www.w3.org/1999/xlink" x="0px" y="0px"
	 viewBox="0 0 136.4 43.57" style="enable-background:new 0 0 136.4 43.57;" xml:space="preserve">
<style type="text/css">
	.st0{fill:#FFFFFF;}
</style>
<g>
	<polygon class="st0" points="60.7,33.49 62.04,33.49 62.04,35.26 63.56,35.26 63.56,33.49 64.9,33.49 64.9,38.13 63.56,38.13 
		63.56,36.3 62.04,36.3 62.04,38.13 60.7,38.13 	"/>
	<path class="st0" d="M65.65,33.81c0-0.34,0.27-0.61,0.64-0.61c0.36,0,0.64,0.26,0.64,0.61s-0.28,0.6-0.64,0.6
		C65.93,34.41,65.65,34.16,65.65,33.81 M65.71,34.73h1.16v3.4h-1.16V34.73z"/>
	<path class="st0" d="M67.42,36.47v-0.05c0-1.16,0.64-1.78,1.44-1.78c0.53,0,0.85,0.23,1.05,0.57v-1.98h1.16v4.89h-1.16v-0.55
		c-0.17,0.35-0.55,0.63-1.06,0.63C68.07,38.21,67.42,37.65,67.42,36.47 M69.95,36.45V36.4c0-0.57-0.24-0.88-0.67-0.88
		c-0.43,0-0.67,0.29-0.67,0.88v0.05c0,0.57,0.25,0.86,0.66,0.86C69.69,37.32,69.95,37.03,69.95,36.45"/>
	<path class="st0" d="M71.56,37.19c0-0.8,0.68-1.11,1.81-1.11h0.32V36c0-0.33-0.08-0.54-0.45-0.54c-0.32,0-0.44,0.19-0.46,0.4h-1.09
		c0.05-0.82,0.69-1.22,1.62-1.22c0.94,0,1.53,0.38,1.53,1.29v2.2h-1.13v-0.4c-0.16,0.25-0.46,0.48-1.01,0.48
		C72.1,38.21,71.56,37.91,71.56,37.19 M73.7,36.94v-0.21h-0.31c-0.47,0-0.67,0.09-0.67,0.37c0,0.19,0.13,0.32,0.4,0.32
		C73.45,37.43,73.7,37.23,73.7,36.94"/>
	<rect x="75.54" y="33.24" class="st0" width="1.16" height="4.89"/>
	<path class="st0" d="M77.23,38.13h1.16c0.05,0.25,0.2,0.44,0.62,0.44c0.51,0,0.72-0.29,0.72-0.71v-0.52
		c-0.18,0.32-0.55,0.62-1.05,0.62c-0.79,0-1.44-0.59-1.44-1.63v-0.05c0-1,0.64-1.64,1.44-1.64c0.54,0,0.86,0.23,1.05,0.57v-0.48
		h1.16v3.11c0,1.01-0.67,1.55-1.88,1.55C77.85,39.39,77.32,38.9,77.23,38.13 M79.76,36.33v-0.04c0-0.47-0.24-0.77-0.67-0.77
		c-0.44,0-0.67,0.3-0.67,0.77v0.05c0,0.47,0.24,0.77,0.66,0.77C79.5,37.11,79.76,36.81,79.76,36.33"/>
	<path class="st0" d="M81.39,36.48v-0.05c0-1.09,0.81-1.78,1.86-1.78c1.05,0,1.85,0.67,1.85,1.75v0.05c0,1.1-0.81,1.77-1.86,1.77
		C82.21,38.21,81.39,37.57,81.39,36.48 M83.93,36.46V36.4c0-0.57-0.23-0.89-0.67-0.89c-0.44,0-0.68,0.3-0.68,0.88v0.05
		c0,0.58,0.23,0.9,0.68,0.9C83.69,37.35,83.93,37.02,83.93,36.46"/>
	<path class="st0" d="M86.71,36.48v-0.05c0-1.13,0.81-1.78,1.81-1.78c0.83,0,1.6,0.36,1.66,1.4h-1.09
		c-0.05-0.32-0.21-0.49-0.54-0.49c-0.41,0-0.65,0.29-0.65,0.86v0.05c0,0.59,0.23,0.9,0.67,0.9c0.33,0,0.55-0.2,0.59-0.56h1.05
		c-0.03,0.86-0.61,1.42-1.71,1.42C87.48,38.21,86.71,37.62,86.71,36.48"/>
	<path class="st0" d="M90.67,34.73h1.16v0.68c0.21-0.51,0.57-0.73,1.1-0.72v1.08c-0.71-0.02-1.1,0.2-1.1,0.75v1.61h-1.16V34.73z"/>
	<path class="st0" d="M93.23,36.48v-0.05c0-1.09,0.81-1.78,1.84-1.78c0.93,0,1.73,0.53,1.73,1.76v0.3h-2.39
		c0.03,0.45,0.29,0.71,0.71,0.71c0.38,0,0.54-0.18,0.59-0.4h1.09c-0.1,0.76-0.69,1.2-1.72,1.2C94.01,38.21,93.23,37.59,93.23,36.48
		 M95.67,36.05c-0.02-0.41-0.22-0.64-0.6-0.64c-0.35,0-0.59,0.23-0.65,0.64H95.67z"/>
	<path class="st0" d="M97.11,36.48v-0.05c0-1.13,0.81-1.78,1.81-1.78c0.83,0,1.6,0.36,1.67,1.4H99.5c-0.05-0.32-0.21-0.49-0.55-0.49
		c-0.41,0-0.65,0.29-0.65,0.86v0.05c0,0.59,0.23,0.9,0.67,0.9c0.33,0,0.55-0.2,0.59-0.56h1.05c-0.03,0.86-0.61,1.42-1.71,1.42
		C97.89,38.21,97.11,37.62,97.11,36.48"/>
	<path class="st0" d="M100.9,36.48v-0.05c0-1.09,0.81-1.78,1.84-1.78c0.93,0,1.73,0.53,1.73,1.76v0.3h-2.39
		c0.03,0.45,0.29,0.71,0.71,0.71c0.38,0,0.55-0.18,0.59-0.4h1.09c-0.1,0.76-0.69,1.2-1.72,1.2C101.67,38.21,100.9,37.59,100.9,36.48
		 M103.33,36.05c-0.02-0.41-0.22-0.64-0.6-0.64c-0.35,0-0.59,0.23-0.65,0.64H103.33z"/>
	<path class="st0" d="M106.05,36.48v-0.05c0-1.13,0.81-1.78,1.81-1.78c0.83,0,1.6,0.36,1.67,1.4h-1.09
		c-0.05-0.32-0.21-0.49-0.55-0.49c-0.41,0-0.65,0.29-0.65,0.86v0.05c0,0.59,0.23,0.9,0.67,0.9c0.33,0,0.55-0.2,0.59-0.56h1.05
		c-0.03,0.86-0.61,1.42-1.71,1.42C106.83,38.21,106.05,37.62,106.05,36.48"/>
	<path class="st0" d="M109.84,36.48v-0.05c0-1.09,0.81-1.78,1.86-1.78c1.05,0,1.85,0.67,1.85,1.75v0.05c0,1.1-0.81,1.77-1.86,1.77
		S109.84,37.57,109.84,36.48 M112.37,36.46V36.4c0-0.57-0.23-0.89-0.67-0.89c-0.43,0-0.68,0.3-0.68,0.88v0.05
		c0,0.58,0.23,0.9,0.68,0.9C112.14,37.35,112.37,37.02,112.37,36.46"/>
	<path class="st0" d="M114.05,34.73h1.16v0.55c0.18-0.35,0.55-0.64,1.12-0.64c0.66,0,1.11,0.41,1.11,1.28v2.21h-1.16v-1.97
		c0-0.38-0.15-0.57-0.48-0.57c-0.35,0-0.58,0.21-0.58,0.64v1.91h-1.16V34.73z"/>
	<path class="st0" d="M118.26,37.04v-1.52h-0.41v-0.79h0.41v-0.71h1.16v0.71h0.67v0.79h-0.67v1.4c0,0.25,0.12,0.36,0.34,0.36
		c0.13,0,0.23-0.02,0.33-0.06v0.88c-0.15,0.04-0.37,0.1-0.64,0.1C118.69,38.21,118.26,37.84,118.26,37.04"/>
	<path class="st0" d="M120.6,33.81c0-0.34,0.27-0.61,0.64-0.61c0.36,0,0.64,0.26,0.64,0.61s-0.28,0.6-0.64,0.6
		C120.87,34.41,120.6,34.16,120.6,33.81 M120.66,34.73h1.16v3.4h-1.16V34.73z"/>
	<path class="st0" d="M122.35,38.13h1.15c0.05,0.25,0.2,0.44,0.62,0.44c0.51,0,0.72-0.29,0.72-0.71v-0.52
		c-0.18,0.32-0.55,0.62-1.05,0.62c-0.79,0-1.44-0.59-1.44-1.63v-0.05c0-1,0.64-1.64,1.44-1.64c0.54,0,0.86,0.23,1.05,0.57v-0.48
		h1.16v3.11c0,1.01-0.67,1.55-1.88,1.55C122.97,39.39,122.44,38.9,122.35,38.13 M124.88,36.33v-0.04c0-0.47-0.24-0.77-0.67-0.77
		c-0.43,0-0.67,0.3-0.67,0.77v0.05c0,0.47,0.25,0.77,0.66,0.77C124.62,37.11,124.88,36.81,124.88,36.33"/>
	<path class="st0" d="M126.51,36.48v-0.05c0-1.09,0.81-1.78,1.86-1.78c1.05,0,1.85,0.67,1.85,1.75v0.05c0,1.1-0.81,1.77-1.86,1.77
		C127.33,38.21,126.51,37.57,126.51,36.48 M129.05,36.46V36.4c0-0.57-0.23-0.89-0.67-0.89c-0.43,0-0.67,0.3-0.67,0.88v0.05
		c0,0.58,0.23,0.9,0.67,0.9C128.82,37.35,129.05,37.02,129.05,36.46"/>
	<path class="st0" d="M60.61,10.71h2.42c0.06,0.63,0.35,1.15,1.4,1.15c0.73,0,1.14-0.36,1.14-0.88c0-0.55-0.34-0.69-1.4-0.86
		c-2.5-0.3-3.35-1.04-3.35-2.82c0-1.6,1.31-2.76,3.43-2.76c2.13,0,3.33,0.89,3.49,2.76h-2.35c-0.09-0.63-0.45-0.95-1.14-0.95
		c-0.68,0-1.03,0.31-1.03,0.75c0,0.5,0.27,0.72,1.37,0.87c2.24,0.25,3.4,0.83,3.4,2.75c0,1.62-1.29,2.95-3.57,2.95
		C61.95,13.67,60.68,12.63,60.61,10.71"/>
	<path class="st0" d="M68.3,10.36v-0.1c0-2.08,1.55-3.4,3.51-3.4c1.77,0,3.3,1.02,3.3,3.35v0.58h-4.56
		c0.06,0.85,0.56,1.35,1.35,1.35c0.73,0,1.04-0.33,1.13-0.77h2.08c-0.2,1.46-1.33,2.29-3.28,2.29C69.79,13.67,68.3,12.49,68.3,10.36
		 M72.95,9.55c-0.04-0.78-0.42-1.21-1.14-1.21c-0.67,0-1.13,0.43-1.24,1.21H72.95z"/>
	<path class="st0" d="M75.3,10.37v-0.1c0-2.16,1.55-3.4,3.46-3.4c1.59,0,3.05,0.69,3.17,2.66h-2.08c-0.1-0.61-0.4-0.94-1.04-0.94
		c-0.78,0-1.24,0.56-1.24,1.65v0.1c0,1.13,0.43,1.71,1.28,1.71c0.62,0,1.05-0.37,1.13-1.08h1.99c-0.06,1.64-1.17,2.7-3.26,2.7
		C76.78,13.67,75.3,12.55,75.3,10.37"/>
	<path class="st0" d="M82.47,7.04h2.22v1.29c0.41-0.96,1.09-1.39,2.1-1.37v2.07c-1.35-0.03-2.1,0.38-2.1,1.43v3.07h-2.22V7.04z"/>
	<path class="st0" d="M86.95,10.36v-0.1c0-2.08,1.55-3.4,3.51-3.4c1.77,0,3.3,1.02,3.3,3.35v0.58H89.2
		c0.06,0.85,0.56,1.35,1.35,1.35c0.73,0,1.04-0.33,1.13-0.77h2.08c-0.2,1.46-1.33,2.29-3.28,2.29
		C88.44,13.67,86.95,12.49,86.95,10.36 M91.6,9.55c-0.04-0.78-0.42-1.21-1.14-1.21c-0.67,0-1.13,0.43-1.24,1.21H91.6z"/>
	<path class="st0" d="M94.6,11.44V8.56h-0.78V7.04h0.78V5.69h2.22v1.35h1.28v1.51h-1.28v2.67c0,0.47,0.24,0.68,0.66,0.68
		c0.25,0,0.43-0.04,0.63-0.11v1.69c-0.28,0.07-0.71,0.19-1.23,0.19C95.42,13.67,94.6,12.97,94.6,11.44"/>
	<path class="st0" d="M98.34,11.73c0-1.53,1.29-2.12,3.45-2.12h0.62V9.46c0-0.62-0.15-1.03-0.86-1.03c-0.61,0-0.83,0.36-0.88,0.77
		h-2.08c0.1-1.56,1.33-2.33,3.1-2.33c1.78,0,2.92,0.73,2.92,2.45v4.2h-2.16v-0.76c-0.31,0.47-0.88,0.91-1.92,0.91
		C99.37,13.68,98.34,13.1,98.34,11.73 M102.41,11.26v-0.39h-0.58c-0.89,0-1.29,0.17-1.29,0.71c0,0.37,0.25,0.61,0.77,0.61
		C101.94,12.18,102.41,11.82,102.41,11.26"/>
	<path class="st0" d="M105.47,7.04h2.22v1.29c0.41-0.96,1.09-1.39,2.09-1.37v2.07c-1.35-0.03-2.09,0.38-2.09,1.43v3.07h-2.22V7.04z"
		/>
	<path class="st0" d="M110.42,7.04h2.22v6.48h-2.22V7.04z M111.34,4.24h2.23l-1.3,2.06h-1.59L111.34,4.24z"/>
	<path class="st0" d="M113.24,11.73c0-1.53,1.29-2.12,3.45-2.12h0.62V9.46c0-0.62-0.15-1.03-0.85-1.03c-0.61,0-0.83,0.36-0.88,0.77
		h-2.08c0.1-1.56,1.33-2.33,3.1-2.33c1.78,0,2.92,0.73,2.92,2.45v4.2h-2.16v-0.76c-0.31,0.47-0.88,0.91-1.92,0.91
		C114.27,13.68,113.24,13.1,113.24,11.73 M117.3,11.26v-0.39h-0.58c-0.89,0-1.29,0.17-1.29,0.71c0,0.37,0.25,0.61,0.77,0.61
		C116.83,12.18,117.3,11.82,117.3,11.26"/>
	<path class="st0" d="M122.07,10.35v-0.1c0-2.2,1.22-3.38,2.75-3.38c1.02,0,1.62,0.43,1.99,1.09V4.19h2.22v9.33h-2.22v-1.05
		c-0.32,0.67-1.04,1.2-2.02,1.2C123.3,13.67,122.07,12.6,122.07,10.35 M126.88,10.32v-0.1c0-1.09-0.46-1.67-1.28-1.67
		c-0.83,0-1.28,0.56-1.28,1.69v0.1c0,1.09,0.48,1.65,1.25,1.65C126.39,11.98,126.88,11.42,126.88,10.32"/>
	<path class="st0" d="M129.6,10.36v-0.1c0-2.08,1.55-3.4,3.51-3.4c1.77,0,3.3,1.02,3.3,3.35v0.58h-4.56
		c0.06,0.85,0.56,1.35,1.35,1.35c0.73,0,1.04-0.33,1.13-0.77h2.08c-0.2,1.46-1.33,2.29-3.28,2.29
		C131.08,13.67,129.6,12.49,129.6,10.36 M134.24,9.55c-0.04-0.78-0.42-1.21-1.14-1.21c-0.67,0-1.13,0.43-1.24,1.21H134.24z"/>
	<path class="st0" d="M60.72,22.76v-0.1c0-2.73,1.93-4.52,4.52-4.52c2.3,0,3.9,1.06,4.11,3.41h-2.62c-0.1-0.9-0.59-1.4-1.49-1.4
		c-1.14,0-1.86,0.89-1.86,2.5v0.1c0,1.6,0.68,2.5,1.9,2.5c0.89,0,1.52-0.47,1.65-1.45h2.53c-0.17,2.29-1.83,3.48-4.13,3.48
		C62.24,27.28,60.72,25.47,60.72,22.76"/>
	<path class="st0" d="M69.93,24.87v-4.23h2.22v3.87c0,0.73,0.28,1.09,0.92,1.09c0.67,0,1.1-0.39,1.1-1.23v-3.73h2.22v6.48h-2.22v-1
		c-0.35,0.67-0.98,1.15-2.06,1.15C70.86,27.28,69.93,26.51,69.93,24.87"/>
	<rect x="77.35" y="17.8" class="st0" width="2.21" height="9.33"/>
	<path class="st0" d="M80.82,25.05v-2.89h-0.78v-1.51h0.78V19.3h2.22v1.35h1.28v1.51h-1.28v2.68c0,0.47,0.24,0.68,0.66,0.68
		c0.25,0,0.43-0.04,0.63-0.11v1.69c-0.28,0.07-0.71,0.19-1.23,0.19C81.64,27.28,80.82,26.57,80.82,25.05"/>
	<path class="st0" d="M84.88,24.87v-4.23h2.22v3.87c0,0.73,0.29,1.09,0.92,1.09c0.67,0,1.1-0.39,1.1-1.23v-3.73h2.22v6.48h-2.22v-1
		c-0.35,0.67-0.98,1.15-2.06,1.15C85.81,27.28,84.88,26.51,84.88,24.87"/>
	<path class="st0" d="M92.24,20.65h2.22v1.29c0.41-0.97,1.09-1.39,2.1-1.37v2.07c-1.35-0.03-2.1,0.38-2.1,1.43v3.07h-2.22V20.65z"/>
	<path class="st0" d="M96.65,25.33c0-1.53,1.29-2.12,3.44-2.12h0.62v-0.15c0-0.62-0.15-1.03-0.86-1.03c-0.61,0-0.83,0.36-0.88,0.77
		h-2.08c0.1-1.56,1.33-2.33,3.1-2.33c1.78,0,2.92,0.73,2.92,2.46v4.2h-2.16v-0.76c-0.31,0.47-0.88,0.91-1.92,0.91
		C97.67,27.28,96.65,26.71,96.65,25.33 M100.71,24.86v-0.39h-0.58c-0.89,0-1.29,0.17-1.29,0.71c0,0.37,0.25,0.61,0.77,0.61
		C100.24,25.78,100.71,25.42,100.71,24.86"/>
	<polygon class="st0" points="14.58,8.67 5.76,8.67 0,43.57 35.09,43.57 36.54,34.9 27.77,34.9 29.22,26.12 20.44,26.12 19,34.84 
		10.21,34.84 	"/>
	<polygon class="st0" points="36.54,34.9 45.36,34.9 51.12,0 16.03,0 14.58,8.67 23.36,8.67 21.9,17.45 30.68,17.45 32.12,8.73 
		40.91,8.73 	"/>
</g>
</svg>
