<?xml version="1.0" encoding="utf-8"?>
<!-- Generator: Adobe Illustrator 24.0.0, SVG Export Plug-In . SVG Version: 6.00 Build 0)  -->
<svg version="1.1" id="Layer_1" xmlns="http://www.w3.org/2000/svg" xmlns:xlink="http://www.w3.org/1999/xlink" x="0px" y="0px"
	 viewBox="0 0 58.55 70.82" style="enable-background:new 0 0 58.55 70.82;" xml:space="preserve">
<style type="text/css">
	.st0{fill:#FFFFFF;}
</style>
<path class="st0" d="M47.79,61.59c-0.2,0-0.35,0.05-0.48,0.15c-0.07,0.06-0.16,0.18-0.26,0.34v-0.43h-0.62v2.5h0.66v-1.2
	c0-0.2,0.02-0.35,0.07-0.44c0.09-0.17,0.27-0.26,0.53-0.26h0.08c0.03,0,0.06,0,0.1,0.01V61.6c-0.03,0-0.05,0-0.05,0H47.79z
	 M10.97,14.63c-0.01,0.04,0.01,0.07,0.05,0.08c0.04,0.01,0.08-0.02,0.09-0.05c0.03-0.11,0.06-0.21,0.14-0.31
	c0.17-0.2,0.42-0.25,0.67-0.3c-0.17,0.02-0.34,0.02-0.5,0.09C11.17,14.24,11.07,14.41,10.97,14.63 M50.72,21.47
	c-0.07,0.02-0.32,0.05-0.34,0.05c-0.04-0.01-0.08,0.01-0.11-0.01l0.03-0.03l0.06,0c0.13-0.02,0.26-0.04,0.39-0.05
	c0.03-0.02,0.07,0,0.09-0.02l-0.04-0.01c-0.07-0.08-0.16,0.01-0.24,0c0,0-0.53,0-0.56,0.02c0.01,0.02,0.26,0.19,0.31,0.19
	c0.04-0.02,0.1-0.02,0.15-0.03c0.03-0.01,0.06,0,0.08-0.01c0.12-0.01,0.23-0.03,0.34-0.07C50.84,21.43,50.76,21.49,50.72,21.47
	 M51.51,21.01c0.07-0.01,0.15,0,0.22-0.04c0.13-0.06,0.28-0.12,0.35-0.26l-0.02-0.01c-0.04,0.02-0.06,0.05-0.1,0.07
	c-0.09,0.03-0.19,0.02-0.26,0.09l0,0c-0.04,0.02-0.1,0.04-0.14,0.07l-0.05,0l0.01-0.03c0.05-0.04,0.09-0.08,0.15-0.1
	c0.09-0.05,0.19-0.04,0.29-0.11l0.01,0c0.02-0.01,0.09-0.02,0.06-0.07c-0.13-0.03-0.27,0.06-0.39,0.11
	c-0.07,0.01-0.14,0.08-0.2,0.12v0c-0.09,0.07-0.18,0.07-0.27,0.12c-0.04,0.03-0.09,0.04-0.12,0.08l0.04,0.02l0,0.01l0.04-0.02v0.01
	l0.02-0.01C51.26,21.02,51.39,20.99,51.51,21.01 M39.85,67.21c-0.43,0-0.75,0.13-0.96,0.4c-0.21,0.26-0.32,0.57-0.32,0.94
	c0,0.36,0.1,0.68,0.32,0.94c0.21,0.26,0.53,0.39,0.96,0.39c0.43,0,0.75-0.13,0.96-0.39c0.21-0.26,0.32-0.58,0.32-0.94
	c0-0.36-0.11-0.68-0.32-0.94C40.6,67.34,40.28,67.21,39.85,67.21 M40.28,69.12c-0.1,0.14-0.24,0.2-0.44,0.2
	c-0.19,0-0.34-0.07-0.44-0.2c-0.11-0.13-0.15-0.33-0.15-0.58c0-0.25,0.04-0.44,0.15-0.58c0.1-0.13,0.25-0.2,0.44-0.2
	c0.19,0,0.34,0.07,0.44,0.2c0.1,0.14,0.16,0.33,0.16,0.58C40.44,68.8,40.38,68.99,40.28,69.12 M50.76,21.16
	c-0.04,0.01-0.1,0.01-0.13,0.03c-0.05,0-0.1,0.02-0.14,0.03l-0.06,0.02c-0.06,0-0.12,0.02-0.17,0.03l-0.03,0c-0.03,0-0.07,0-0.11,0
	l-0.03-0.02c0.03-0.02,0.07-0.02,0.11-0.05c0.07-0.01,0.15-0.03,0.22-0.03c0.15-0.04,0.3-0.03,0.44-0.09l-0.01-0.01
	c-0.09-0.01-0.17-0.02-0.26,0c-0.03-0.01-0.07-0.01-0.1,0h-0.03c-0.16,0.03-0.32,0.07-0.48,0.13c-0.04,0.02-0.09,0.04-0.13,0.04
	c-0.07,0-0.14,0-0.2,0.04l0.08,0.02v-0.01c0.04,0.01,0.09,0.01,0.13,0.02c0.08-0.01,0.16,0.01,0.23,0.02c0.03,0,0.05,0.01,0.08,0.02
	c0.07,0.04,0.14-0.02,0.21-0.01l0.08,0c0.02-0.03,0.06-0.01,0.1-0.03c0.06,0,0.13-0.03,0.19-0.04c0.09-0.05,0.18-0.05,0.24-0.13
	C50.93,21.13,50.84,21.15,50.76,21.16 M42.3,61.6c-0.18,0-0.33,0.04-0.45,0.11c-0.11,0.06-0.2,0.15-0.28,0.27v-1.2h-0.66v3.38h0.64
	v-0.32c0.09,0.12,0.17,0.21,0.24,0.26c0.13,0.08,0.3,0.12,0.5,0.12c0.33,0,0.59-0.13,0.77-0.38c0.19-0.25,0.28-0.58,0.28-0.96
	c0-0.37-0.09-0.68-0.28-0.92C42.89,61.72,42.63,61.6,42.3,61.6 M42.53,63.48c-0.09,0.13-0.22,0.2-0.39,0.2
	c-0.19,0-0.34-0.07-0.44-0.21c-0.09-0.14-0.14-0.32-0.14-0.53c0-0.18,0.02-0.33,0.07-0.44c0.09-0.22,0.26-0.33,0.5-0.33
	c0.23,0,0.39,0.11,0.48,0.33c0.04,0.12,0.07,0.26,0.07,0.44C42.68,63.16,42.63,63.34,42.53,63.48 M45.88,62.07
	c-0.12-0.17-0.26-0.29-0.43-0.37c-0.18-0.07-0.37-0.12-0.59-0.12c-0.37,0-0.67,0.11-0.89,0.35c-0.23,0.23-0.34,0.57-0.34,1
	c0,0.46,0.13,0.79,0.38,1c0.26,0.2,0.55,0.31,0.89,0.31c0.4,0,0.71-0.12,0.94-0.37c0.14-0.15,0.23-0.3,0.24-0.45h-0.67
	c-0.04,0.07-0.08,0.13-0.13,0.17c-0.09,0.07-0.21,0.12-0.36,0.12c-0.15,0-0.26-0.03-0.36-0.1c-0.16-0.1-0.26-0.27-0.26-0.52h1.82
	c0.01-0.21,0-0.38-0.01-0.5C46.05,62.39,45.98,62.22,45.88,62.07 M44.29,62.65c0.03-0.16,0.08-0.29,0.18-0.39
	c0.09-0.09,0.22-0.14,0.39-0.14c0.15,0,0.28,0.04,0.39,0.13c0.1,0.09,0.16,0.22,0.17,0.39H44.29z M40.16,63.85
	c0.21-0.26,0.32-0.57,0.32-0.94c0-0.36-0.1-0.68-0.32-0.94c-0.21-0.26-0.53-0.4-0.96-0.4c-0.43,0-0.75,0.13-0.96,0.4
	c-0.21,0.26-0.32,0.58-0.32,0.94c0,0.37,0.1,0.68,0.32,0.94c0.21,0.26,0.53,0.39,0.96,0.39C39.63,64.24,39.95,64.11,40.16,63.85
	 M38.75,63.49c-0.1-0.14-0.16-0.33-0.16-0.58c0-0.25,0.05-0.45,0.16-0.58c0.1-0.14,0.25-0.2,0.44-0.2c0.19,0,0.34,0.06,0.44,0.2
	c0.1,0.13,0.15,0.32,0.15,0.58c0,0.25-0.05,0.44-0.15,0.58c-0.1,0.14-0.25,0.2-0.44,0.2C39.01,63.69,38.86,63.62,38.75,63.49
	 M8.28,12l-0.07-0.15l-0.1-0.22l0.66,0.51l0.22,0.17l-0.78-1.6l-0.27-0.56L7.9,10.08l0.05,0.07l0.09,0.13l1.1,1.59L8.5,10.44
	L8.4,10.23l-0.02-0.05L8.16,9.69l0.22,0.33l0.16,0.23l0.14,0.21l0.74,1.1l-0.32-1.04l-0.06-0.18l-0.07-0.22L8.81,9.58L8.68,9.17
	L8.66,9.1l0.06,0.1l0.16,0.26l0.39,0.66l0.16,0.27l0.02,0.04l0.43,0.72l-0.19-0.56l-0.06-0.17l-0.11-0.31L9.44,9.91L9.4,9.81
	L9.16,9.1l0.39,0.66l0.21,0.36l0.15,0.26l0.06,0.11l0.08,0.13l0.01,0.03l0.16,0.27l0.02-0.02l-0.14-0.39l-0.04-0.12l-0.01-0.02
	L9.73,9.49L9.54,8.97L9.8,9.41l0.23,0.4l0.17,0.29l0.2,0.34l0.07,0.12l0,0l0.1,0.08l-0.03-0.08l-0.05-0.14l-0.15-0.44l-0.27-0.81
	l0.38,0.71l0.08,0.15l0.37,0.71V9.78l0.09,0.15l0.09-0.63l-0.6,0.5l0.16-1.66L9.91,9.14L9.84,7.73L8.9,9.3L8.31,7.61v1.3L6.98,7.73
	l0.94,2.43l-0.04-0.01l-0.02,0l-1.6-0.27l1.87,1.97L8.28,12z M47.52,48.79l-0.04-13.23v-19.6H10.71v19.6h0l0.02,13.25
	c-0.01,0.05-0.03,0.22-0.03,0.45c0,0.65,0.16,1.87,1.15,3.03c1,1.15,2.82,2.2,6.08,2.54c3.94,0.41,6.16,0.49,7.66,0.77
	c0.75,0.14,1.3,0.33,1.81,0.62c0.51,0.3,0.99,0.71,1.56,1.32l0.06,0.07h0.21l0.06-0.07c0.57-0.61,1.05-1.02,1.56-1.32
	c0.77-0.45,1.64-0.64,3.08-0.81c1.44-0.16,3.43-0.28,6.39-0.59c3.26-0.34,5.08-1.39,6.08-2.54c1-1.15,1.15-2.38,1.15-3.03
	C47.55,48.99,47.52,48.82,47.52,48.79 M10.75,44.29c0.14-0.02,0.65-0.28,0.96-0.51c0.31-0.24,0.85-0.28,0.85-0.28
	c0.26-0.33,0.46-0.15,1.05-0.5c0.59-0.35,1.13-0.28,1.54-0.48c0.4-0.2,0.66,0.02,1.09-0.22c0.42-0.24,0.9-0.02,1.18-0.07
	c0.28-0.06,0.85,0.2,1.35,0.2c0.51,0,0.86,0.35,1.14,0.37c0.28,0.02,0.83,0.59,1.11,0.87c0.28,0.28,0.63,0.24,0.43,0.28
	c-0.2,0.04-0.65,0.26-0.99,0.35c-0.33,0.09-0.33,0.33-0.68,0.35c-0.35,0.02-0.61-0.09-0.85,0.19c-0.24,0.28-0.53,0.36-0.66,0.33
	c-0.13-0.04-0.2-0.15-0.35,0c-0.15,0.15-0.77,0.24-0.96,0.2c-0.18-0.04-0.39-0.15-0.76-0.18c-0.37-0.04-1.09-0.06-1.44-0.18
	c-0.35-0.13-1.24-0.37-1.59-0.35c-0.35,0.02-0.35,0.11-0.5,0.15c-0.15,0.04-0.18-0.09-0.3-0.17C12.27,44.55,10.75,44.29,10.75,44.29
	 M23.63,39.82c0.01,0.02,0.03,0.03,0.04,0.03c-0.06,0.07-0.11,0.15-0.15,0.23c-0.06,0.02-0.12,0.06-0.17,0.1
	c-0.01,0.01-0.02,0.02-0.03,0.03c0.03-0.19,0.14-0.37,0.29-0.53l-0.01,0.06L23.63,39.82z M25.98,38.84L25.98,38.84L25.98,38.84
	l0.01,0.02l0.02,0.01h0c0.01,0.01,0.05,0.02,0.08,0.05c0.03,0.03,0.06,0.06,0.06,0.09l0.01,0.07c0,0.07-0.02,0.11-0.03,0.13
	c-0.01,0-0.04,0.01-0.08,0.02c-0.04,0.01-0.09,0.01-0.13,0.01c-0.04,0-0.07,0-0.09-0.01l-0.02-0.01c-0.01-0.02-0.01-0.06-0.03-0.11
	c-0.02-0.07-0.05-0.14-0.14-0.22c0.01-0.01,0.05-0.03,0.09-0.03c0.05-0.01,0.1-0.02,0.14-0.02c0.03,0,0.06,0,0.08,0.01L25.98,38.84z
	 M25.97,38.68c0.75-0.15,1.63-0.23,2.57-0.23h0.06c0,0.02-0.02,0.07-0.02,0.15h-0.04c-0.85,0-1.65,0.07-2.35,0.19
	c0,0-0.01-0.01-0.02-0.01c-0.04-0.03-0.07-0.04-0.09-0.05c-0.03-0.02-0.06-0.03-0.08-0.04C25.99,38.69,25.98,38.69,25.97,38.68
	 M25.66,39.21c0,0.02,0.01,0.05,0.03,0.08c0.03,0.05,0.07,0.06,0.11,0.07c0.04,0.01,0.08,0.01,0.13,0.01c0.06,0,0.12,0,0.17-0.02
	c0.03-0.01,0.05-0.01,0.07-0.02l0.06-0.03c0.05-0.05,0.08-0.13,0.08-0.23c0.67-0.11,1.45-0.17,2.29-0.16
	c0.02,0.08,0.07,0.14,0.13,0.16c0.07,0.03,0.13,0.04,0.17,0.04c0.05,0,0.09-0.01,0.09-0.01c0.02,0,0.07-0.01,0.13-0.03
	c0.04-0.02,0.07-0.04,0.11-0.08c0.02-0.02,0.03-0.04,0.04-0.07c0.78,0.03,1.53,0.12,2.19,0.24c0,0.05,0.01,0.09,0.05,0.13
	c0.04,0.05,0.09,0.07,0.15,0.08c0.05,0.01,0.11,0.02,0.17,0.02c0.03,0,0.06,0,0.09-0.01c0.03-0.01,0.06-0.01,0.08-0.03
	c0.03-0.03,0.04-0.05,0.05-0.07c0.58,0.14,1.08,0.31,1.48,0.5c0,0.05,0.01,0.1,0.03,0.14c0.02,0.04,0.05,0.09,0.11,0.1
	c0.03,0.01,0.11,0.03,0.19,0.03c0.04,0,0.08,0,0.12-0.01c0.15,0.11,0.28,0.22,0.36,0.34c-0.01,0.01-0.01,0.02-0.02,0.03
	c-0.02,0.04-0.03,0.09-0.03,0.14c0,0.1,0.03,0.18,0.07,0.23c0.02,0.03,0.06,0.04,0.09,0.04c0,0,0,0,0.01,0
	c-0.03,0.21-0.19,0.4-0.46,0.57c-0.02-0.03-0.03-0.05-0.03-0.05l-0.01-0.02l-0.03-0.01c-0.04-0.01-0.08-0.02-0.12-0.02
	c-0.08,0-0.16,0.03-0.21,0.08c-0.04,0.05-0.06,0.11-0.06,0.17c0,0.03,0,0.05,0.01,0.08c-0.73,0.3-1.84,0.5-3.14,0.55
	c-0.02-0.04-0.05-0.08-0.1-0.12c-0.07-0.07-0.16-0.09-0.23-0.09c-0.11,0-0.2,0.05-0.22,0.06h0l-0.07,0.05
	c-0.02,0.02-0.04,0.06-0.05,0.1c-0.21,0-0.42,0-0.63-0.01c-1.09-0.05-2.11-0.19-2.94-0.4c0-0.01,0.01-0.02,0.01-0.02v-0.01l0-0.01
	v-0.02c0-0.03,0-0.09-0.03-0.15c-0.02-0.06-0.09-0.12-0.18-0.15c-0.04-0.01-0.08-0.01-0.12-0.01c-0.06,0-0.12,0.01-0.16,0.05
	c-0.05,0.03-0.08,0.07-0.11,0.12c-0.01,0.01-0.01,0.02-0.02,0.03c-0.83-0.27-1.41-0.62-1.6-0.98l0.01,0.01l0.02-0.15
	c0,0,0.01-0.02,0.01-0.05c0-0.04-0.01-0.11-0.04-0.19c-0.01-0.03-0.02-0.05-0.04-0.08c0.02-0.04,0.04-0.08,0.06-0.12l0.05,0.01
	c0,0,0.03,0,0.08,0c0.06,0,0.14,0,0.21-0.06c0.03-0.03,0.06-0.06,0.09-0.1c0.02-0.04,0.05-0.08,0.05-0.14l-0.01-0.05
	c-0.01-0.02-0.02-0.04-0.03-0.06C24.73,39.49,25.15,39.33,25.66,39.21 M29.15,38.58c0,0.04,0,0.1,0,0.17v0.09l0,0.01
	c0,0.03-0.01,0.04-0.02,0.06c-0.02,0.02-0.05,0.04-0.09,0.05L29,38.96l-0.01,0h0l0,0l-0.01,0h-0.01l-0.05,0c-0.03,0-0.07,0-0.1-0.02
	c-0.03-0.02-0.05-0.04-0.06-0.09c-0.01-0.07-0.02-0.14-0.02-0.19c0-0.05,0-0.1,0.01-0.13l0.01-0.03c0.03-0.02,0.14-0.05,0.2-0.05
	h0.01c0.04,0,0.08,0.01,0.12,0.02c0.03,0.02,0.07,0.04,0.07,0.04v0C29.15,38.51,29.15,38.54,29.15,38.58 M30.29,34.76
	c-0.63-0.49,1.51-1.17,1.47-2.19c-0.02-0.47,0.63-0.33,0.48-0.79c-0.15-0.46,0.23-0.57-0.11-0.73c-0.34-0.16-0.37-1.2-0.37-1.2
	c0-2.64-0.99-3.44-1.1-3.61c-0.11-0.17-0.08-1.28-0.37-1.86c-0.29-0.58-0.12-1.4-0.15-1.88l0.27-0.86c0,0,0.3-0.28,0.32,0.2
	c0.02,0.48-0.06,1.58,0.24,2.15c0.3,0.58,0.69,1.37,0.8,1.54c0.11,0.17,0.24-0.07,0.34,0.09c0.11,0.16,0.14,0.23,0.25,0.28
	c0.11,0.05,0.38,0.11,0.42-0.06c0.03-0.17,0.17-0.11,0.27,0.18c0.1,0.3,0.44,0.87,0.44,3.51c0,0-0.06,0.64,0.28,0.8
	c0.34,0.16,0.37,0.15,0.52,0.6c0.15,0.45,0.1,0.59,0.44,0.91c0.35,0.32,0.66,0.06,0.9,0.48c0.23,0.42,0.9,1.22,1.53,1.71
	c0.54,0.42,1.55,1.11,1.98,1.43h-9.56C30.14,35.23,30.55,34.97,30.29,34.76 M41.19,38.35c-4.49-1.82-8.04,0-8.04,0
	s2.12-1.2,4.27-1.1C39.56,37.35,41.19,38.35,41.19,38.35 M39.7,36.79c0,0,1.61-1.19,3.24-1.1c1.63,0.1,2.87,1.1,2.87,1.1
	S43.04,35.17,39.7,36.79 M34.65,40.27c-0.01,0-0.02,0-0.03,0c-0.06-0.08-0.13-0.16-0.22-0.23c-0.06-0.05-0.13-0.11-0.2-0.16
	c0.01-0.01,0.02-0.02,0.03-0.03l0.1-0.06c0.06,0.05,0.12,0.09,0.17,0.14c0.12,0.11,0.22,0.22,0.3,0.34c-0.02,0-0.04,0-0.06,0
	C34.69,40.26,34.66,40.26,34.65,40.27L34.65,40.27z M34.45,40.57l0.01-0.07c0-0.01,0.05-0.05,0.1-0.06l0.07-0.02l0.03,0h0
	c0.01,0,0.03-0.01,0.06-0.01c0.02,0,0.05,0.01,0.08,0.02c0.02,0.01,0.04,0.02,0.05,0.06c0.01,0.03,0.02,0.07,0.02,0.1
	c0,0.04-0.01,0.08-0.02,0.11c-0.02-0.01-0.05-0.02-0.08-0.03c-0.06-0.02-0.12-0.03-0.16-0.03c-0.06,0-0.09,0.02-0.12,0.04
	l-0.03,0.01C34.46,40.66,34.44,40.61,34.45,40.57 M32.07,38.85c0.67,0.16,1.25,0.37,1.72,0.61c-0.06,0.02-0.11,0.05-0.15,0.09
	c-0.13-0.06-0.27-0.13-0.43-0.19c-0.33-0.13-0.7-0.25-1.11-0.35c0-0.01,0-0.02,0-0.04l0-0.01C32.1,38.92,32.09,38.89,32.07,38.85
	 M33.68,39.74c0-0.06,0.09-0.16,0.27-0.16h0.03c0.08,0.01,0.13,0.05,0.16,0.08l0.02,0.04c-0.02,0.02-0.04,0.04-0.05,0.06
	c-0.04,0.04-0.07,0.08-0.1,0.12c-0.02,0.02-0.06,0.03-0.12,0.03c-0.06,0-0.12-0.02-0.16-0.02l0-0.01c-0.01-0.01-0.03-0.06-0.03-0.11
	V39.74z M31.61,39.11c0-0.06,0.01-0.13,0.02-0.18c0-0.02,0.01-0.04,0.01-0.05c0.03-0.01,0.09-0.03,0.14-0.03l0.04,0.01
	c0.05,0.01,0.08,0.04,0.11,0.06l0.03,0.06v0.01c0,0.04,0,0.11-0.02,0.18c0,0.03-0.01,0.06-0.01,0.08l0,0.02
	c-0.01,0-0.05,0.01-0.09,0.01c-0.05,0-0.1-0.01-0.13-0.02c-0.04-0.01-0.06-0.02-0.07-0.03v0C31.62,39.19,31.61,39.15,31.61,39.11
	 M31.56,38.74c-0.01,0.01-0.02,0.01-0.03,0.01l-0.03,0.02L31.5,38.8c0,0-0.01,0.03-0.01,0.07c-0.67-0.13-1.41-0.22-2.19-0.26
	c0-0.01,0-0.03,0-0.04c0-0.04,0-0.07-0.01-0.11C30.1,38.51,30.87,38.6,31.56,38.74 M33.7,41.62l0-0.04l0.02-0.07
	c0.02-0.02,0.04-0.03,0.1-0.03c0.02,0,0.04,0,0.06,0.01c0.02,0.04,0.06,0.12,0.06,0.23c0,0.04,0,0.09-0.02,0.15
	c-0.01,0.07-0.03,0.1-0.05,0.11l-0.05,0.01l-0.06-0.01c-0.01,0-0.02,0-0.03-0.01c0-0.04,0-0.11,0-0.18
	C33.73,41.73,33.73,41.68,33.7,41.62 M26.03,42.22c0.01-0.02,0.02-0.07,0.04-0.12c0.86,0.23,1.88,0.38,2.98,0.42
	c0.23,0.01,0.45,0.01,0.68,0.01c0.04,0,0.09,0,0.13,0c0.01,0.03,0.02,0.06,0.02,0.06l0,0v0l0.04,0.08c-0.06,0-0.13,0-0.19,0
	c-0.22,0-0.45-0.01-0.68-0.01c-1.11-0.05-2.15-0.2-3.03-0.43C26.03,42.23,26.03,42.23,26.03,42.22 M25.97,41.92
	c-0.03,0.1-0.06,0.21-0.08,0.25l-0.04,0.05c-0.02,0.01-0.04,0.01-0.08,0.01l-0.06,0c-0.05-0.01-0.08-0.03-0.09-0.05l-0.02-0.02
	c0-0.04,0.01-0.12,0.02-0.2c0.01-0.06,0.02-0.12,0.03-0.17c0.01-0.05,0.03-0.1,0.04-0.11c0.02-0.04,0.04-0.06,0.06-0.07
	c0.02-0.01,0.04-0.02,0.08-0.02c0.02,0,0.05,0,0.09,0.01c0.04,0.01,0.06,0.03,0.08,0.06c0.01,0.03,0.01,0.06,0.02,0.08
	C26.03,41.73,26,41.82,25.97,41.92 M29.9,42.23l-0.01-0.01l0.01-0.01l0.03-0.02l0,0l0,0v0c0.02-0.01,0.08-0.04,0.15-0.04
	c0.05,0,0.09,0.01,0.13,0.05c0.05,0.05,0.08,0.1,0.1,0.16c0.01,0.05,0.01,0.12,0.01,0.19v0.09l-0.02,0.04
	c-0.02,0.01-0.05,0.02-0.09,0.02c-0.04,0-0.08-0.01-0.11-0.02l-0.03-0.02l0,0c-0.04-0.08-0.05-0.1-0.05-0.1
	c-0.01-0.02-0.02-0.07-0.03-0.12C29.96,42.36,29.93,42.28,29.9,42.23 M25.49,38.88c0,0.02,0.01,0.04,0.02,0.06
	c-0.54,0.14-0.99,0.31-1.33,0.51c-0.04-0.02-0.09-0.04-0.14-0.04h-0.01c-0.03,0-0.06,0-0.08,0.01c0.25-0.17,0.57-0.32,0.94-0.45
	c0.2-0.07,0.42-0.14,0.66-0.19C25.52,38.8,25.49,38.83,25.49,38.88 M24.03,39.56L24.03,39.56c0.04,0,0.11,0.03,0.17,0.08
	c0.06,0.05,0.1,0.11,0.1,0.12l0,0.01l-0.02,0.05c-0.02,0.02-0.04,0.05-0.07,0.07c-0.01,0.01-0.07,0.02-0.11,0.02l-0.03,0
	c-0.03-0.05-0.08-0.08-0.13-0.11c-0.06-0.03-0.12-0.06-0.15-0.07c-0.02-0.01-0.04-0.01-0.05-0.01l0-0.02
	c0.01-0.03,0.05-0.07,0.1-0.1C23.91,39.58,23.98,39.56,24.03,39.56 M23.82,40.32c0.01,0.03,0.02,0.06,0.02,0.09
	c-0.07,0-0.15,0.02-0.23,0.06c-0.09,0.04-0.12,0.12-0.14,0.17c0,0.01,0,0.01-0.01,0.02c-0.01-0.01-0.03-0.02-0.04-0.04
	c-0.03-0.04-0.06-0.09-0.06-0.16c0-0.04,0.03-0.11,0.09-0.16c0.06-0.05,0.13-0.09,0.2-0.09l0.06,0.01
	C23.77,40.24,23.8,40.27,23.82,40.32 M23.36,40.76c0.01,0.01,0.03,0.02,0.04,0.03c0.03,0.02,0.05,0.03,0.09,0.03h0.01
	c0.03,0,0.06-0.02,0.07-0.03c0.03-0.03,0.03-0.05,0.04-0.07c0.01-0.03,0.02-0.06,0.03-0.09l0.04-0.04c0,0,0.01,0,0.01-0.01
	l0.03,0.35c0.05,0.05,0.1,0.11,0.16,0.16c0.27,0.24,0.68,0.47,1.19,0.67c0.13,0.05,0.27,0.1,0.42,0.15
	c-0.01,0.05-0.01,0.11-0.02,0.15c-0.73-0.24-1.31-0.53-1.69-0.86c-0.01-0.01-0.03-0.02-0.04-0.04l0.09,0.94c0,0,0,0,0,0l0.14,1.36h0
	l0.23,2.27l1.32-3.46c0.03,0.04,0.09,0.07,0.17,0.09c0.03,0.01,0.06,0.01,0.09,0.01c0.05,0,0.11-0.01,0.15-0.04
	c0.02-0.01,0.03-0.02,0.05-0.04l1.31,5.13l1.33-2.41c0,0,0,0,0,0l0.81-1.45l0,0l0.49-0.88l0.01,0.02c0.03,0.06,0.07,0.08,0.12,0.1
	c0.05,0.02,0.1,0.03,0.16,0.03c0.05,0,0.11-0.01,0.16-0.04l0.26,0.91l0,0l0.18,0.62l0.78,2.74l1-2.51l0.57-1.45l0,0l0.4-1.01
	c-0.06,0.02-0.12,0.05-0.18,0.07c-0.77,0.27-1.78,0.45-2.92,0.5c0-0.01,0-0.02,0-0.04l0,0v-0.09v-0.02
	c1.25-0.06,2.33-0.27,3.11-0.58v0.03l0,0.06l0.02,0.04c0.01,0.02,0.04,0.03,0.07,0.03h0.01l0.04,0.01c0.03,0.01,0.06,0.02,0.1,0.02
	c0.05,0,0.11-0.02,0.15-0.06c0.01-0.01,0.02-0.02,0.03-0.04l0.12,0.9c0,0,0,0,0,0l0.12,0.89l0.2,1.5l0.22-3.87
	c-0.04,0.04-0.09,0.09-0.14,0.13c-0.13,0.11-0.28,0.2-0.45,0.3c0.01-0.06,0.02-0.12,0.02-0.17V41.7c0.13-0.07,0.24-0.15,0.33-0.23
	c0.24-0.2,0.38-0.41,0.39-0.63l0,0l0,0l0,0c0.01,0.01,0.04,0.04,0.07,0.04c0.03,0,0.05-0.01,0.06-0.02c0,0,0-0.01,0.01-0.01
	c-0.01,0.14-0.06,0.28-0.14,0.4l-0.24,4.42c0,0-0.01-0.01-0.01-0.01c-0.05-0.04-0.11-0.06-0.18-0.06c-0.07,0-0.13,0.02-0.17,0.05
	l-0.16-1.36c-0.31,0.14-0.79,0.2-1.12,0.23l-1.06,2.73c1.05-0.41,1.84-0.95,2.25-1.26v0.03c0,0.05,0.02,0.09,0.05,0.12
	c-0.44,0.33-1.24,0.86-2.29,1.27c-0.01-0.01-0.03-0.02-0.04-0.03c-0.06-0.04-0.14-0.06-0.22-0.06c-0.08,0-0.16,0.02-0.22,0.06
	c-0.06,0.04-0.1,0.1-0.1,0.18v0.06c-0.63,0.2-1.34,0.34-2.11,0.36c-0.1,0-0.2,0.01-0.29,0.01c-0.48,0-0.94-0.04-1.37-0.12v-0.12
	c0-0.01,0-0.02,0-0.03c0.43,0.08,0.88,0.12,1.37,0.12c0.1,0,0.19,0,0.29-0.01c0.78-0.03,1.5-0.17,2.14-0.38l-0.61-2.35
	c-0.66,0.14-1.36,0.06-1.76-0.01l-1.44,2.6c-0.01-0.04-0.04-0.08-0.08-0.11c-0.06-0.04-0.12-0.07-0.19-0.07
	c-0.07,0-0.14,0.02-0.19,0.07c0,0-0.01,0.01-0.01,0.01l-0.78-2.86c-0.33-0.05-0.92-0.15-1.25-0.35l-0.68,1.87
	c-0.01-0.05-0.04-0.09-0.08-0.13c-0.05-0.04-0.12-0.06-0.19-0.06c-0.06,0-0.11,0.01-0.16,0.04l-0.25-2.65
	c-0.07-0.01-0.13-0.03-0.18-0.06v2.38c0.13,0.11,0.27,0.22,0.43,0.34c-0.01,0.01-0.02,0.01-0.03,0.02
	c-0.03,0.02-0.06,0.06-0.07,0.09c-0.12-0.09-0.23-0.17-0.33-0.26v0.19c0.1,0.08,0.2,0.16,0.31,0.25v0.14c0,0.02,0,0.04,0.01,0.06
	c-0.16-0.12-0.31-0.24-0.44-0.35l-0.02-0.02v-5.48H23.36z M34.3,46.25c0.02,0,0.04,0.01,0.07,0.01c0.07,0,0.13-0.02,0.18-0.05
	c0,0,0.01,0,0.01-0.01v0.03l-0.03,0.02c0,0-1,0.92-2.6,1.55v-0.16C33.14,47.15,34,46.5,34.3,46.25 M34.26,46.04v-0.21l0.02-0.04
	c0.02-0.02,0.05-0.03,0.09-0.03c0.04,0,0.07,0.01,0.09,0.03l0.03,0.04v0.21l-0.03,0.04c-0.02,0.02-0.05,0.03-0.09,0.03
	c-0.04,0-0.07-0.01-0.09-0.03L34.26,46.04z M31.78,47.57v0.25c0,0.01-0.01,0.03-0.04,0.06c-0.03,0.02-0.07,0.04-0.13,0.04
	c-0.05,0-0.1-0.01-0.13-0.04c-0.03-0.02-0.04-0.04-0.04-0.06v-0.25c0-0.01,0.01-0.03,0.04-0.05c0.03-0.02,0.08-0.04,0.13-0.04
	c0.06,0,0.1,0.01,0.13,0.04C31.77,47.54,31.78,47.56,31.78,47.57 M27.43,48.18c0.02-0.02,0.04-0.04,0.06-0.07
	c0.53,0.09,1.09,0.14,1.7,0.12c0.76-0.03,1.47-0.17,2.1-0.36c0.01,0.05,0.05,0.09,0.09,0.13c-0.66,0.21-1.4,0.36-2.2,0.39
	c-0.1,0-0.2,0-0.29,0c-0.56,0-1.08-0.06-1.57-0.15C27.36,48.23,27.4,48.21,27.43,48.18 M27.24,48.1c-0.04,0-0.08-0.01-0.1-0.03
	l-0.03-0.06v-0.24l0.03-0.06c0.02-0.02,0.06-0.03,0.1-0.03c0.04,0,0.07,0.01,0.1,0.03l0.03,0.06v0.24l-0.03,0.06
	C27.31,48.09,27.28,48.1,27.24,48.1 M24.06,46.8c0.06,0,0.12-0.02,0.17-0.05c0.07,0.05,0.15,0.1,0.23,0.15
	c0.67,0.43,1.51,0.85,2.51,1.1v0.01c0,0.07,0.04,0.13,0.09,0.17c-1.26-0.3-2.27-0.85-3.01-1.38H24.06z M23.95,46.62l-0.03-0.06
	v-0.24l0.03-0.06c0.02-0.02,0.06-0.03,0.1-0.03c0.03,0,0.07,0.01,0.09,0.03l0.03,0.06v0.24l-0.03,0.06
	c-0.02,0.02-0.06,0.03-0.09,0.03C24.02,46.65,23.98,46.64,23.95,46.62 M24.33,46.6c0-0.02,0-0.03,0-0.05v-0.13
	c0.06,0.04,0.13,0.08,0.19,0.13c0.66,0.42,1.49,0.83,2.49,1.07c-0.03,0.04-0.05,0.09-0.05,0.14v0.01
	C25.9,47.51,25.02,47.06,24.33,46.6 M23.89,49.43c-4.02-1.87-8.02,0-8.02,0s2.11-1.21,4.26-1.11
	C22.27,48.42,23.89,49.43,23.89,49.43 M12.4,39.76c0,0,1.48-1.21,2.98-1.11c1.5,0.1,2.65,1.11,2.65,1.11
	C14.84,37.93,12.4,39.76,12.4,39.76 M19.26,40.67c1.71,0.1,3.01,1.11,3.01,1.11c-3.44-1.9-6.4,0-6.4,0S17.56,40.58,19.26,40.67
	 M12.98,38.16c0,0,0.99-0.8,1.98-0.73c1,0.06,1.75,0.73,1.75,0.73S14.93,37.01,12.98,38.16 M11.99,36.76
	C11.83,36.8,11.99,36.76,11.99,36.76s0.08-0.05,0.24-0.12c0.46-0.22,1.54-0.66,2.62-0.62c1.44,0.07,2.52,0.74,2.52,0.74
	C14.99,35.95,13.52,36.35,11.99,36.76 M12.04,46.62c0,0,1.15-0.64,2.32-0.59c1.16,0.05,2.05,0.59,2.05,0.59S14.22,46.04,12.04,46.62
	 M13.36,52.36c0,0,2.12-1.2,4.26-1.11c2.14,0.1,3.77,1.11,3.77,1.11S17.32,50.58,13.36,52.36 M22.39,54.57c0,0,2.12-1.21,4.26-1.11
	c2.14,0.1,3.77,1.11,3.77,1.11S26.56,52.74,22.39,54.57 M33.15,51.41c-0.19,0.04-0.66,0.26-0.99,0.35
	c-0.33,0.09-0.33,0.33-0.68,0.35c-0.35,0.02-0.61-0.09-0.85,0.19c-0.24,0.28-0.53,0.37-0.67,0.33c-0.13-0.04-0.2-0.15-0.35,0
	c-0.15,0.15-0.78,0.24-0.96,0.2c-0.19-0.04-0.39-0.15-0.76-0.18c-0.37-0.04-1.09-0.05-1.44-0.18c-0.35-0.13-1.24-0.37-1.59-0.35
	c-0.35,0.02-0.35,0.11-0.5,0.15c-0.15,0.04-0.18-0.09-0.29-0.16c-0.11-0.07-1.63-0.33-1.63-0.33c0.14-0.02,0.65-0.28,0.97-0.52
	c0.31-0.24,0.85-0.28,0.85-0.28c0.26-0.33,0.46-0.15,1.05-0.5c0.59-0.35,1.13-0.27,1.54-0.48c0.4-0.2,0.66,0.02,1.09-0.22
	c0.43-0.24,0.91-0.02,1.19-0.07c0.28-0.05,0.85,0.2,1.35,0.2c0.5,0,0.86,0.35,1.14,0.37c0.28,0.02,0.83,0.59,1.11,0.87
	C33,51.41,33.35,51.37,33.15,51.41 M33.15,47.96c0,0,2.12-1.21,4.26-1.11c2.14,0.1,3.77,1.11,3.77,1.11S37.22,46.29,33.15,47.96
	 M35.1,52.62c0,0,2.12-1.21,4.26-1.11c2.15,0.1,3.77,1.11,3.77,1.11S39.39,51.08,35.1,52.62 M39.06,49.99c0,0,1.52-1.21,3.05-1.11
	c1.54,0.1,2.7,1.11,2.7,1.11C41.85,48.34,39.06,49.99,39.06,49.99 M45.78,44.36c-0.19,0.03-0.65,0.26-0.99,0.35
	c-0.33,0.09-0.33,0.34-0.68,0.36c-0.35,0.02-0.61-0.09-0.85,0.19c-0.24,0.28-0.54,0.36-0.67,0.33c-0.13-0.04-0.2-0.15-0.35,0
	c-0.15,0.15-0.78,0.24-0.96,0.2c-0.19-0.04-0.39-0.15-0.76-0.19c-0.37-0.04-1.09-0.05-1.44-0.18c-0.35-0.13-1.24-0.37-1.59-0.35
	c-0.35,0.02-0.35,0.11-0.49,0.15c-0.15,0.04-0.19-0.09-0.3-0.17c-0.11-0.07-1.63-0.34-1.63-0.34c0.14-0.02,0.65-0.28,0.96-0.52
	c0.31-0.23,0.85-0.28,0.85-0.28c0.26-0.33,0.46-0.15,1.05-0.5c0.59-0.35,1.13-0.28,1.53-0.48c0.41-0.2,0.67,0.02,1.09-0.22
	c0.43-0.24,0.91-0.02,1.19-0.08c0.28-0.06,0.84,0.2,1.35,0.2c0.51,0,0.87,0.35,1.14,0.37c0.28,0.02,0.83,0.59,1.11,0.87
	C45.63,44.36,45.98,44.32,45.78,44.36 M37.76,41.96c0,0,2.12-1.21,4.26-1.11c2.14,0.1,3.77,1.11,3.77,1.11
	C41.81,40.09,37.76,41.96,37.76,41.96 M38.35,40.31c0,0,2.12-1.21,4.26-1.11c2.14,0.1,3.77,1.11,3.77,1.11
	C42.5,38.57,38.35,40.31,38.35,40.31 M47.08,35.48h-6c-0.07-0.05-0.18-0.07-0.35-0.07c-0.93,0.02-1.94-0.54-2.39-0.96
	c-0.44-0.42-1.65-1.16-2.19-1.95c-0.54-0.79-0.67-0.86-0.99-0.91c-0.32-0.05-0.59-0.4-0.71-1.04c-0.12-0.64-0.45-0.49-0.62-0.69
	c-0.17-0.2-0.08-1.43-0.17-2.59c-0.1-1.16-0.57-1.84-0.71-1.92c-0.15-0.07-0.3,0.44-0.45,0.32c-0.15-0.12-0.22-0.42-0.32-0.45
	c-0.09-0.02-0.25,0.25-0.34-0.12c-0.1-0.37-0.59-1.28-0.74-1.9c-0.15-0.61-0.05-1.38-0.15-1.75c-0.1-0.37-0.6-0.12-0.6-0.12
	c-0.18-0.25-2.08,0.29-2.16,0.62c-0.07,0.32-0.05,1.06-0.66,1.5c-0.61,0.44-0.62,0.89-0.74,1.33c-0.12,0.44-0.81,0.91-1.13,1.13
	c-0.32,0.22-0.42,0.79-0.54,1.06c-0.12,0.27-0.17,0.27-0.39-0.05c-0.22-0.32-0.46,0-0.49,0.21c-0.02,0.21-0.17,0.04-0.17,0.04
	c-0.44-0.22-0.5,0.64-0.5,0.64c0.13,1.5-0.22,2.61-0.74,3.18c-0.52,0.57-1.33,0.74-1.45,1.03c-0.12,0.29-0.69,0.59-0.96,0.71
	c-0.27,0.12-1.5,0.81-1.6,0.96c-0.09,0.15,0.07,0.57-0.61,0.83c-0.69,0.27-1.5,0.86-1.5,0.86l-0.04,0.07h-5.51V16.45h35.94V35.48z
	 M49.99,21.13c0.14-0.06,0.26-0.08,0.41-0.1c0.05,0,0.11-0.01,0.15-0.01c0.04,0,0.07-0.04,0.1-0.03l0.08-0.02l0.02-0.03
	c-0.03-0.01-0.07-0.02-0.11,0c-0.05-0.03-0.1,0.02-0.16,0.03C50.44,20.95,50.38,21,50.32,21c-0.05,0-0.11,0.02-0.15-0.01
	c0.03-0.04,0.09-0.04,0.13-0.05v0l0.02-0.01c0.13-0.02,0.25-0.05,0.37-0.09c-0.07-0.04-0.18-0.01-0.24,0c-0.03-0.01-0.06,0-0.1,0.01
	c-0.12,0.02-0.23,0.06-0.33,0.15c-0.04,0.05-0.08,0.07-0.07,0.14L49.99,21.13z M13.08,21.72c0.02,0.01,0.06,0.03,0.16,0.03l0.03,0
	c0.07,0,0.21,0,0.38,0v-2.17l-0.31-0.01h-0.02c-0.14,0-0.19,0.04-0.21,0.07c-0.03,0.03-0.03,0.07-0.03,0.09v1.97V21.72L13.08,21.72
	L13.08,21.72z M13.66,26.47l0,0.09c0,0.06,0.04,0.11,0.09,0.13c0.03,0.01,0.67,0.25,3.39,0.27c0.06,0.25,0.29,0.43,0.56,0.43
	c0.27,0,0.5-0.18,0.56-0.44c2.62-0.02,3.24-0.26,3.27-0.27c0.05-0.02,0.09-0.07,0.09-0.13l0.01-0.09V26.3c0-0.04-0.02-0.08-0.04-0.1
	c-0.03-0.03-0.06-0.04-0.09-0.04c-0.04-0.06-0.07-0.12-0.1-0.17c-0.02-0.04-0.03-0.07-0.04-0.09l-0.01-0.03l0-0.01
	c-0.02-0.06-0.08-0.1-0.14-0.1h-0.25l-0.03,0.01l-0.01,0c-0.01,0-0.02,0-0.03,0c-0.03,0.01-0.06,0.01-0.09,0.02
	c-0.4-0.26-0.59-0.54-0.68-0.73c0.08-0.01,0.16-0.05,0.24-0.1c0.1-0.07,0.18-0.2,0.18-0.35c0-0.16-0.09-0.29-0.18-0.36
	c-0.1-0.07-0.21-0.11-0.33-0.11h-0.03l-0.03,0.01c-0.01,0-0.04,0.01-0.11,0.02c-0.33-0.72-0.33-1.59-0.33-1.59
	c-0.01-0.14-0.03-0.26-0.04-0.38c0.08,0,0.15-0.03,0.21-0.08c0.06-0.05,0.1-0.13,0.1-0.21v0c0-0.03,0-0.05-0.01-0.07v0
	c0-0.01-0.01-0.02-0.01-0.03c0-0.01-0.01-0.02-0.02-0.04c-0.02-0.02-0.04-0.05-0.06-0.07c-0.02-0.01-0.03-0.03-0.05-0.04
	c-0.05-0.03-0.1-0.04-0.16-0.04h-0.17c-0.5-1.08-1.64-1.03-1.64-1.03s-1.13-0.06-1.64,1.03h-0.17c-0.06,0-0.12,0.02-0.17,0.04
	c-0.02,0.01-0.03,0.02-0.05,0.04c-0.03,0.02-0.05,0.05-0.07,0.08c-0.01,0.01-0.01,0.02-0.02,0.03c0,0.01-0.01,0.02-0.01,0.02v0
	c-0.01,0.02-0.01,0.05-0.01,0.07v0c0,0.09,0.04,0.16,0.1,0.21c0.05,0.05,0.12,0.08,0.2,0.08c-0.02,0.12-0.04,0.24-0.05,0.38
	c0,0,0,0.87-0.33,1.59c-0.01,0-0.02,0-0.02,0c-0.03,0-0.06-0.01-0.07-0.01l-0.02,0l-0.03-0.01h-0.03c-0.12,0-0.24,0.03-0.34,0.11
	c-0.1,0.07-0.19,0.2-0.19,0.36c0,0.15,0.09,0.28,0.19,0.35c0.07,0.05,0.15,0.08,0.24,0.1c-0.09,0.19-0.28,0.47-0.69,0.73
	c-0.03-0.01-0.07-0.01-0.1-0.02c-0.01,0-0.02,0-0.02,0l-0.02,0l-0.03,0h-0.25c-0.06,0-0.12,0.04-0.14,0.1l0,0.01
	c-0.01,0.03-0.08,0.18-0.16,0.29c-0.03,0-0.06,0.02-0.09,0.04c-0.03,0.03-0.04,0.06-0.04,0.1V26.47z M15.82,21.9
	c0-0.07,0.05-0.12,0.13-0.13c0.01,0,0.02,0,0.03,0h3.35c0.01,0,0.02,0,0.03,0c0.07,0.01,0.13,0.07,0.13,0.13
	c0,0.04-0.02,0.08-0.06,0.1c-0.03,0.02-0.06,0.03-0.1,0.03h-3.35c-0.04,0-0.08-0.01-0.1-0.03C15.84,21.97,15.82,21.94,15.82,21.9
	 M15.06,24.6c0-0.09,0.1-0.17,0.23-0.17c0,0,0.01,0,0.02,0c0.12,0.02,0.72,0.11,2.34,0.11c1.6,0,2.21-0.09,2.34-0.11
	c0.02,0,0.03-0.01,0.03-0.01c0.12,0,0.22,0.07,0.22,0.17c0,0.09-0.09,0.16-0.21,0.16h-0.01c0,0-0.44,0.12-2.37,0.12
	c-1.93,0-2.37-0.12-2.37-0.12h-0.02C15.15,24.76,15.06,24.68,15.06,24.6 M13.95,26.42c0.01-0.01,0.01-0.01,0.02-0.02
	c0.1-0.12,0.17-0.25,0.21-0.34h0.14l0.02,0l0,0c0.25,0.05,0.71,0.11,1.5,0.16h0.01c0.08,0,0.15,0.01,0.22,0.01c0.03,0,0.06,0,0.09,0
	c0.05,0,0.11,0,0.17,0.01c0.06,0,0.12,0,0.18,0.01h0.05c0.02,0,0.04,0,0.05,0c0.27,0.01,0.57,0.01,0.9,0.01h0.12h0.24
	c1.78-0.01,2.67-0.13,3.05-0.2h0c0,0,0,0,0.01,0l0.01,0l0.02,0h0.13c0.04,0.09,0.11,0.23,0.21,0.34c0.01,0.01,0.01,0.01,0.02,0.02
	v0.02c-0.25,0.06-1.06,0.21-3.07,0.23c-0.14,0-0.29,0-0.44,0c-0.07,0-0.14,0-0.21,0h0c-0.05,0-0.1,0-0.15,0c-0.11,0-0.22,0-0.32,0
	c-1.3-0.01-2.12-0.07-2.61-0.13c-0.27-0.03-0.44-0.06-0.54-0.09c-0.02,0-0.03-0.01-0.04-0.01V26.42z M54.86,61.57
	c-0.43,0-0.76,0.13-0.96,0.4c-0.21,0.26-0.32,0.58-0.32,0.94c0,0.36,0.1,0.68,0.32,0.94c0.2,0.26,0.53,0.39,0.96,0.39
	c0.43,0,0.75-0.13,0.96-0.39c0.21-0.26,0.32-0.58,0.32-0.94c0-0.36-0.11-0.68-0.32-0.94C55.61,61.71,55.29,61.57,54.86,61.57
	 M55.31,63.49c-0.1,0.14-0.25,0.2-0.45,0.2c-0.19,0-0.33-0.07-0.44-0.2c-0.1-0.14-0.16-0.33-0.16-0.58c0-0.25,0.05-0.45,0.16-0.58
	c0.1-0.14,0.25-0.2,0.44-0.2c0.19,0,0.34,0.06,0.45,0.2c0.1,0.13,0.15,0.32,0.15,0.58C55.45,63.16,55.41,63.35,55.31,63.49
	 M52.89,61.79c-0.16-0.13-0.37-0.2-0.63-0.2c-0.2,0-0.37,0.05-0.51,0.15c-0.07,0.06-0.16,0.15-0.24,0.28v-0.37h-0.63v2.5h0.66V62.8
	c0-0.15,0.02-0.28,0.06-0.38c0.08-0.19,0.24-0.29,0.46-0.29c0.18,0,0.31,0.06,0.36,0.19c0.04,0.07,0.05,0.17,0.05,0.3v1.52h0.67
	v-1.69C53.13,62.16,53.06,61.93,52.89,61.79 M51.45,20.78c0.1-0.07,0.2-0.12,0.29-0.2l0.02-0.05l-0.04,0.04l-0.01-0.01v0
	c-0.09,0.02-0.15,0.09-0.24,0.14l0-0.04c0.11-0.1,0.25-0.18,0.37-0.28l-0.01-0.01c-0.08,0-0.14,0.06-0.21,0.1l-0.02,0.02
	c-0.14,0.06-0.27,0.2-0.27,0.36C51.37,20.87,51.41,20.8,51.45,20.78 M13.81,21.74h0.16c0.31,0,0.66,0,0.96,0v-2.86
	c-0.06,0.1-0.14,0.19-0.22,0.27c-0.17,0.18-0.34,0.29-0.35,0.29l-0.04,0.01h-0.44c-0.07,0-0.08,0.01-0.08,0.01v0.01l0,0.02h0.01
	V21.74z M18.28,60.77v3.38h2.4v-0.61h-1.69v-2.77H18.28z M19.18,67.61c-0.07-0.12-0.17-0.21-0.28-0.27c-0.12-0.07-0.26-0.1-0.41-0.1
	c-0.33,0-0.59,0.13-0.79,0.37c-0.2,0.25-0.29,0.58-0.29,1c0,0.37,0.1,0.68,0.3,0.91c0.2,0.24,0.45,0.35,0.74,0.35
	c0.18,0,0.32-0.03,0.45-0.1c0.12-0.07,0.22-0.17,0.32-0.32v0.34h0.63v-3.38h-0.66V67.61z M19.06,69.11
	c-0.09,0.14-0.23,0.21-0.42,0.21c-0.18,0-0.32-0.07-0.41-0.21c-0.09-0.14-0.14-0.32-0.14-0.55c0-0.21,0.05-0.39,0.14-0.54
	c0.09-0.15,0.23-0.22,0.42-0.22c0.12,0,0.23,0.05,0.33,0.12c0.16,0.13,0.23,0.35,0.23,0.66C19.21,68.8,19.16,68.97,19.06,69.11
	 M52.07,20.95c-0.12,0.07-0.2,0.14-0.32,0.17c-0.03,0.02-0.09,0.04-0.13,0.02c-0.03,0.02-0.04-0.02-0.07-0.01v-0.03
	c0.03-0.03,0.05-0.01,0.08-0.01c0.13-0.05,0.29-0.08,0.38-0.2l0-0.01c-0.06,0.03-0.13,0.05-0.2,0.1c-0.11,0.06-0.22,0.07-0.35,0.07
	c-0.06,0.01-0.11,0-0.17,0.04c0.07,0.03,0.16,0.06,0.24,0.07c0.05,0.03,0.1,0.02,0.15,0.01c0.02-0.03,0.05,0.01,0.08-0.03
	c0.05,0.01,0.09-0.05,0.14-0.05c0.06-0.02,0.08-0.06,0.13-0.08C52.05,20.99,52.13,20.95,52.07,20.95 M21.77,60.75H21.1v0.61h0.66
	V60.75z M22.51,67.71c-0.11-0.17-0.26-0.29-0.43-0.37c-0.18-0.07-0.37-0.12-0.59-0.12c-0.37,0-0.66,0.12-0.89,0.35
	c-0.23,0.23-0.34,0.56-0.34,1c0,0.46,0.13,0.8,0.38,1c0.25,0.2,0.55,0.31,0.88,0.31c0.4,0,0.72-0.12,0.94-0.37
	c0.15-0.15,0.23-0.3,0.24-0.45h-0.67c-0.04,0.07-0.08,0.13-0.13,0.17c-0.09,0.08-0.21,0.11-0.36,0.11c-0.14,0-0.26-0.03-0.36-0.09
	c-0.16-0.1-0.25-0.28-0.26-0.53h1.82c0-0.22,0-0.38-0.02-0.49C22.68,68.03,22.61,67.86,22.51,67.71 M20.92,68.29
	c0.02-0.16,0.08-0.29,0.17-0.39c0.09-0.1,0.22-0.15,0.39-0.15c0.16,0,0.29,0.05,0.39,0.14c0.11,0.09,0.16,0.22,0.17,0.39H20.92z
	 M12.79,61.97c-0.07-0.12-0.17-0.21-0.28-0.28c-0.12-0.06-0.26-0.1-0.41-0.1c-0.33,0-0.59,0.12-0.79,0.37
	c-0.2,0.24-0.3,0.58-0.3,1.01c0,0.37,0.1,0.68,0.3,0.91c0.2,0.24,0.45,0.35,0.74,0.35c0.18,0,0.33-0.03,0.45-0.1
	c0.12-0.07,0.22-0.17,0.32-0.32v0.35h0.63v-3.38h-0.66V61.97z M12.66,63.47c-0.1,0.14-0.23,0.21-0.42,0.21s-0.32-0.07-0.41-0.21
	c-0.09-0.14-0.14-0.32-0.14-0.55c0-0.21,0.05-0.39,0.14-0.54c0.09-0.14,0.23-0.21,0.42-0.21c0.12,0,0.24,0.04,0.33,0.12
	c0.15,0.13,0.23,0.35,0.23,0.65C12.81,63.16,12.76,63.34,12.66,63.47 M21.1,64.15h0.66v-2.5H21.1V64.15z M6.32,62.93
	C6.19,62.8,6,62.71,5.74,62.64c-0.39-0.08-0.62-0.14-0.68-0.18c-0.06-0.03-0.1-0.09-0.1-0.16c0-0.06,0.03-0.11,0.09-0.16
	c0.06-0.04,0.16-0.06,0.3-0.06c0.17,0,0.3,0.04,0.37,0.13c0.03,0.05,0.06,0.12,0.07,0.2h0.65c-0.03-0.31-0.14-0.52-0.34-0.65
	c-0.2-0.13-0.45-0.19-0.77-0.19c-0.33,0-0.58,0.08-0.77,0.24C4.4,62,4.3,62.19,4.3,62.43c0,0.2,0.06,0.34,0.18,0.45
	c0.12,0.1,0.31,0.19,0.6,0.26c0.39,0.09,0.62,0.16,0.68,0.2c0.07,0.03,0.09,0.09,0.09,0.17c0,0.07-0.03,0.13-0.11,0.17
	c-0.08,0.04-0.18,0.06-0.31,0.06c-0.22,0-0.37-0.04-0.45-0.13c-0.05-0.05-0.08-0.13-0.09-0.25H4.23c0,0.25,0.09,0.47,0.28,0.63
	c0.19,0.17,0.48,0.25,0.88,0.25c0.38,0,0.67-0.08,0.86-0.24c0.18-0.15,0.27-0.36,0.27-0.61C6.52,63.21,6.45,63.05,6.32,62.93
	 M58.53,16.56c-0.13-3.31-0.93-6.13-1.84-8.32c-0.44-1.05-1.04-2.09-1.59-2.98c-0.47-0.76-0.93-1.41-1.24-1.84l0.97,0.08L57.68,0
	l-4.24,1.38l-0.59,1.58L37.51,11.1l-7,3.71h-2.79L5.39,2.96L4.79,1.38L0.56,0l2.86,3.5l1.87-0.15c0,0-7.27,7.26-4.76,18.98
	c1.29,6.04,4.78,9.7,7.85,11.83l0,0.43c0,0,0.23,0.78,1.22,0.78c0.02,0,0.04,0,0.06,0v0.79c-0.02,0-0.04,0-0.06,0
	c-0.98,0-1.22,0.78-1.22,0.78l0.01,1.32c-0.06,0.21-0.09,0.44-0.09,0.67c0,0.04,0,0.07,0,0.11c0.01,0.23,0.1,0.52,0.23,0.83
	c0.38,0.94,1.09,2.12,1.09,2.12l0.04,0.07l0.01,7.41c-0.01,0.05-0.03,0.23-0.03,0.49c0,0.69,0.16,2,1.22,3.23
	c1.07,1.22,3.01,2.34,6.45,2.7c1.49,0.15,2.74,0.27,3.81,0.36c0.1,0.11,0.35,0.38,0.92,1.05c0.74,0.86,1.69,1.34,2.54,1.35
	c0.07,0,0.15,0,0.22-0.01c0.32,0.04,0.68,0.05,1.07,0.02c0,0,0.84-0.1,1.14-0.77h0.57v0.02v0.12c0,0.22,0.22,0.41,0.49,0.41
	c0.15,0,0.29-0.06,0.37-0.15c0.14,0.14,0.29,0.29,0.44,0.45l0.09,0.09h0.28l0.09-0.09c0.12-0.13,0.24-0.26,0.36-0.37
	c0.08,0.04,0.17,0.07,0.27,0.07c0.27,0,0.49-0.18,0.49-0.41v-0.12c0-0.01,0-0.01,0-0.02h0.96c0.3,0.67,1.14,0.77,1.14,0.77
	c0.4,0.03,0.75,0.02,1.07-0.02c0.07,0.01,0.15,0.01,0.22,0.01c0.85,0,1.8-0.49,2.54-1.35c0.46-0.54,0.71-0.84,0.85-1
	c0.02-0.03,0.04-0.05,0.06-0.07c1.03-0.09,2.23-0.2,3.63-0.34c3.45-0.36,5.38-1.47,6.45-2.7c1.06-1.23,1.23-2.54,1.23-3.23
	c0-0.27-0.03-0.44-0.03-0.5l0.01-7.47c0.02-0.03,0.33-0.54,0.64-1.15c0.16-0.31,0.33-0.65,0.45-0.97c0.13-0.31,0.22-0.6,0.23-0.83
	c0-0.04,0-0.07,0-0.11c0-0.23-0.03-0.46-0.09-0.67l0.01-0.89c0.23-0.24,0.46-0.48,0.7-0.74c2.93-3.18,6.17-7.85,7.46-13.82
	c0.4-1.86,0.57-3.62,0.57-5.27C58.55,17.21,58.54,16.88,58.53,16.56 M4.14,2.33L3.72,2.97L1.85,0.85L4.14,2.33l0.38-0.59l0.36,1.07
	L4.14,2.33z M54.11,2.32l-0.32-0.51l2.85-1.16L54.11,2.32l0.39,0.64l-1.26-0.06L54.11,2.32z M7.72,27.61l0.54-0.52l-1.67-1.38
	l0.81-0.54l-1.31-1.58l0.66-0.25l-1.23-1.5h1.06l-1.45-2.17h1.33l-1.18-1.27l1.03-0.11l-1.6-1.87l1.16,0.12l-1.33-2.14l1.4,0.49
	l-1.11-2l1.24-0.4l-1.13-1.6l1.53-0.47L5.38,8.79L6.51,8.2L6.19,5.42l1.63,1.99L8.68,6.6L8.66,7.93L9.98,6.9l0.1,1.38l1.58-0.76
	l-0.49,1.53l1.92-0.72l-0.29,1.4l1.85-0.59l-0.3,1.72l1.85-1.13l-0.22,1.5l1.8-0.22c0,0-0.37,1.33-0.29,1.38
	c0.07,0.05,1.7-0.47,1.7-0.47l-0.27,1.7l1.65-0.74l-0.19,1.43l1.5-0.17l-0.23,0.68h-2.3l0.37-1.24l-2.21,1.24h-0.17l1.27-2.33
	l-3.08,1.75l1.68-2.96l-2.39,1.19l0.98-2.18l-2.38,1.43l0.82-2.28L12.1,11.3c-0.06-0.09-0.16-0.16-0.3-0.2l0.75-2.23l-1.57,1.08
	L11,9.98l0.03,0.06l0.6,1.06c-0.02,0-0.04,0.01-0.06,0.01c-0.15,0.03-0.33,0.11-0.53,0.21c-0.47,0.23-1.03,0.61-1.44,0.88
	c-0.15,0.1-0.27,0.19-0.37,0.25c-0.1,0.07-0.17,0.12-0.18,0.12c-0.02,0.01-0.07,0.05-0.12,0.12c-0.06,0.08-0.12,0.19-0.16,0.32
	L8.75,13L8.4,12.25l-0.08-0.02l-2.05-0.49l2.11,2.47l-2.11-0.4l2.14,2.21l-2.14-0.19l3.36,2.06l0,0.35l-3.21-1.01l3.21,2.13l0,0.57
	l-2.9-0.97l2.9,2.06v0.49l-2.78-0.91l2.78,1.86v0.59l-2.68-0.35l2.68,1.38l0,0.38l-2.19-0.4l2.19,1.26l0,0.51l-1.92-0.34l1.92,1.38
	v0.64l-1.28-0.15l1.28,1.4l0,0.72l-0.03,0.04c0,0-0.11,0.19-0.27,0.47L7.72,27.61z M11.41,14.81c0.01,0,0.02,0,0.02,0.01h-0.23
	l0.09-0.12c0.06-0.05,0.14-0.08,0.2-0.14l0.34-0.33l-0.42,0.24c-0.1,0.07-0.17,0.22-0.22,0.34H9.79c0.1-0.35,0.3-0.69,0.69-0.91
	c0.97-0.54,1.56-0.46,2.55,0.91h-1.34c0.16-0.04,0.28-0.17,0.28-0.37L11.41,14.81z M10.48,13.61c-0.96,0.54-0.93,1.66-0.9,1.95
	c-0.34-0.84-0.43-1.43-0.37-1.88c0.33,0.03,0.68-0.23,0.74-0.27c0.03-0.02,0.28-0.19,0.62-0.42c0.32-0.22,0.7-0.48,1.02-0.69
	c0.28-0.19,0.51-0.34,0.59-0.4c1.2,0.44,2.83,1.96,3.77,2.92h-2.72C12.11,13.16,11.51,13.03,10.48,13.61 M9.6,34.06
	c-0.01,0-0.03,0-0.04,0c-0.03,0-0.07,0-0.1,0c-0.24-0.03-0.45-0.2-0.61-0.47c-0.04-0.08-0.08-0.16-0.12-0.25
	c-0.09-0.23-0.14-0.49-0.13-0.75v-0.1c0.01-0.12,0.05-0.31,0.13-0.52c0.07-0.21,0.17-0.45,0.29-0.69c0.19-0.41,0.41-0.82,0.59-1.13
	v0.01v0l0,0.19l0,0l-0.01,0.92c-0.07,0.07-0.22,0.24-0.36,0.47c-0.2,0.31-0.41,0.74-0.41,1.23c0,0.14,0.02,0.28,0.05,0.43l0,0v0
	c0,0,0.01,0.03,0.02,0.06c0.02,0.04,0.06,0.11,0.12,0.17c0.1,0.11,0.28,0.23,0.53,0.23h0.01h0h0.01c0.01,0,0.03,0,0.05,0
	c0.01,0,0.02,0,0.04,0c0.02,0,0.03,0,0.05-0.01v0c0.05-0.01,0.11-0.03,0.16-0.06c0,0,0,0,0,0c0.03-0.02,0.06-0.04,0.09-0.07
	c0.06-0.06,0.12-0.13,0.16-0.22l0.01-0.03l0-0.03v-0.02c0-0.04,0-0.11-0.04-0.2c-0.02-0.05-0.06-0.11-0.13-0.15
	c-0.04-0.03-0.09-0.04-0.14-0.05c-0.03-0.01-0.05-0.01-0.08-0.01c-0.04,0-0.08,0-0.12,0.01c-0.06,0.02-0.12,0.05-0.17,0.1
	c-0.07,0.07-0.12,0.17-0.12,0.27c0,0.02,0,0.04,0,0.06C9.31,33.44,9.3,33.42,9.3,33.4c0-0.08,0.04-0.18,0.1-0.26
	c0.06-0.08,0.12-0.14,0.13-0.15v0c0.02-0.01,0.05-0.03,0.08-0.04c0.05-0.02,0.12-0.03,0.19-0.03c0.05,0,0.1,0.01,0.15,0.02
	c0.07,0.02,0.14,0.04,0.21,0.08c0.01,0.01,0.02,0.02,0.03,0.02c0.02,0.01,0.03,0.03,0.04,0.04v0c0.03,0.02,0.05,0.05,0.06,0.08
	c0.02,0.04,0.04,0.08,0.05,0.13c0,0,0,0.01,0,0.01c0.01,0.03,0.01,0.05,0.01,0.08c0,0.07-0.02,0.15-0.05,0.23
	c-0.02,0.04-0.04,0.08-0.07,0.12v-0.01c-0.01,0.02-0.03,0.04-0.04,0.06c-0.02,0.02-0.04,0.04-0.06,0.07
	c-0.05,0.05-0.11,0.09-0.18,0.12C9.85,34.03,9.73,34.06,9.6,34.06 M9.61,33.41c0-0.04,0.04-0.09,0.12-0.09l0.03,0
	c0.04,0.01,0.04,0.02,0.06,0.04l0.01,0.06c-0.04,0.07-0.08,0.11-0.12,0.13c-0.03,0.02-0.06,0.02-0.09,0.03c0,0-0.01,0-0.01,0
	c-0.02,0-0.03,0-0.05,0H9.54h0c-0.07,0-0.14-0.03-0.17-0.04c0-0.01-0.01-0.01-0.02-0.02l0.12-0.04l0.13-0.04l0.01,0L9.61,33.41z
	 M9.43,39.54C9.26,39.26,9.1,38.9,9.1,38.52c0-0.02,0-0.05,0-0.07c0.02,0.04,0.04,0.07,0.06,0.1c0.07,0.11,0.15,0.18,0.15,0.18
	l0,0.01l0.01,0.01c0.09,0.07,0.2,0.11,0.32,0.13v0.97C9.58,39.76,9.51,39.66,9.43,39.54 M9.8,38.6c-0.11,0-0.21-0.03-0.28-0.07
	c-0.01-0.01-0.02-0.02-0.04-0.04c-0.02-0.02-0.05-0.06-0.07-0.1c-0.06-0.08-0.1-0.18-0.1-0.26c0-0.02,0-0.05,0.01-0.07
	c0,0.02,0,0.04,0,0.06c0,0.11,0.04,0.21,0.12,0.28c0.07,0.07,0.18,0.11,0.29,0.11c0.02,0,0.05,0,0.07-0.01c0,0,0.01,0,0.01,0
	c0.14-0.02,0.23-0.12,0.27-0.21c0.04-0.09,0.04-0.16,0.04-0.2v-0.05L10.11,38c-0.06-0.13-0.15-0.23-0.25-0.29c0,0-0.01,0-0.01-0.01
	c-0.1-0.06-0.2-0.08-0.3-0.08H9.55H9.53c-0.24,0-0.42,0.12-0.52,0.23c-0.06,0.07-0.1,0.13-0.12,0.17c-0.02,0.03-0.02,0.05-0.02,0.06
	l0,0v0c-0.04,0.15-0.06,0.29-0.06,0.43c0,0.49,0.21,0.92,0.41,1.23c0.14,0.22,0.29,0.38,0.36,0.46l0.01,1.13
	C9.42,41.04,9.2,40.63,9,40.22c-0.11-0.24-0.21-0.47-0.29-0.69c-0.07-0.21-0.12-0.39-0.13-0.52c0-0.03,0-0.06,0-0.1
	c0-0.26,0.05-0.52,0.14-0.75C8.76,38.08,8.8,38,8.85,37.92c0.16-0.27,0.37-0.44,0.61-0.47c0.01,0,0.02,0,0.03,0
	c0.02,0,0.05,0,0.08,0c0.22,0,0.43,0.09,0.57,0.22c0.08,0.07,0.14,0.15,0.18,0.24c0.03,0.07,0.05,0.15,0.05,0.23
	c0,0.03,0,0.06-0.01,0.08c-0.02,0.13-0.09,0.21-0.19,0.28C10.06,38.56,9.92,38.6,9.8,38.6 M9.35,37.98c0-0.01,0.01-0.01,0.02-0.02
	c0.03-0.01,0.1-0.04,0.17-0.04c0.03,0,0.06,0,0.09,0.01c0.02,0,0.05,0.01,0.07,0.03c0.04,0.02,0.08,0.06,0.12,0.13l-0.01,0.06
	c-0.01,0.02-0.01,0.03-0.06,0.04l-0.03,0c-0.08,0-0.12-0.05-0.12-0.09l0-0.03L9.35,37.98z M25.78,57.77
	c-0.05,0.07-0.12,0.14-0.2,0.2c-0.27,0.24-0.62,0.36-1,0.36c-0.43,0-0.92-0.15-1.39-0.44c-0.33-0.2-0.64-0.47-0.93-0.8
	c-0.34-0.39-0.56-0.65-0.71-0.82c0.14,0.01,0.27,0.02,0.41,0.03c0.1,0.15,0.29,0.4,0.52,0.66c0.37,0.41,0.88,0.85,1.45,0.95
	c0.2,0.03,0.4,0.05,0.58,0.05c0.38,0,0.72-0.07,0.97-0.22c0.25-0.14,0.41-0.39,0.41-0.67v-0.01c0-0.1-0.01-0.19-0.04-0.27
	c-0.02-0.07-0.06-0.13-0.1-0.18c-0.09-0.1-0.22-0.16-0.33-0.16c-0.08,0-0.17,0.02-0.24,0.07c-0.04,0.03-0.07,0.07-0.1,0.11
	c-0.02,0.03-0.03,0.07-0.03,0.11h0l0,0.03c0,0.03,0.01,0.1,0.06,0.15c0.05,0.05,0.12,0.07,0.2,0.08l0,0l0.01-0.02V57
	c0,0-0.01,0-0.01,0l0.02,0.02l0.01,0.03v0l-0.02,0.01l-0.06,0.01c-0.06,0-0.17-0.03-0.24-0.09c-0.07-0.06-0.11-0.12-0.11-0.2v-0.01
	c0-0.06,0.01-0.12,0.03-0.17c0.02-0.04,0.04-0.08,0.07-0.12c0.06-0.07,0.14-0.12,0.27-0.13h0.02c0.07,0,0.14,0.01,0.24,0.04
	c0.02,0,0.04,0.01,0.06,0.02c0.17,0.07,0.31,0.21,0.39,0.39c0.04,0.09,0.06,0.19,0.06,0.3C26.04,57.31,25.97,57.54,25.78,57.77
	 M24.84,57.22c0.12,0.09,0.27,0.15,0.42,0.15c0.06,0,0.11-0.01,0.17-0.03c0.06-0.02,0.1-0.06,0.14-0.1
	c-0.04,0.1-0.12,0.18-0.23,0.25c-0.18,0.11-0.47,0.18-0.82,0.18c-0.16,0-0.34-0.01-0.53-0.05c-0.45-0.07-0.93-0.47-1.28-0.86
	c-0.14-0.15-0.26-0.3-0.35-0.43c0.9,0.08,1.65,0.15,2.28,0.23c-0.02,0.07-0.03,0.14-0.03,0.21l0,0.01
	C24.61,56.98,24.71,57.13,24.84,57.22 M36.17,57.09c-0.28,0.33-0.6,0.6-0.93,0.8c-0.47,0.29-0.95,0.44-1.39,0.44
	c-0.39,0-0.73-0.12-1-0.36c-0.08-0.07-0.14-0.14-0.2-0.21c-0.18-0.23-0.26-0.45-0.26-0.64c0-0.13,0.03-0.25,0.09-0.36
	c0.09-0.18,0.25-0.31,0.42-0.36c0.09-0.03,0.17-0.04,0.24-0.04c0.15,0,0.23,0.05,0.29,0.13c0.02,0.03,0.04,0.06,0.06,0.09
	c0.03,0.06,0.04,0.13,0.04,0.2v0.01c0,0.08-0.04,0.14-0.11,0.2c-0.08,0.06-0.18,0.09-0.24,0.09l-0.06-0.01l-0.01-0.01v0l0.01-0.04
	L33.14,57c0.07,0,0.15-0.03,0.2-0.08c0.05-0.05,0.06-0.12,0.06-0.15l0-0.03h0c-0.01-0.05-0.03-0.1-0.05-0.14
	c-0.02-0.03-0.05-0.06-0.08-0.08c-0.07-0.05-0.15-0.07-0.24-0.07c-0.12,0-0.24,0.05-0.34,0.16c-0.03,0.04-0.06,0.08-0.08,0.13
	c-0.04,0.09-0.06,0.2-0.06,0.32v0.01c0,0.28,0.16,0.53,0.41,0.67c0.25,0.15,0.58,0.22,0.97,0.22c0.18,0,0.38-0.02,0.58-0.05
	c0.57-0.1,1.09-0.55,1.48-0.97c0.24-0.26,0.43-0.52,0.54-0.67c0.12-0.01,0.24-0.02,0.37-0.03C36.74,56.42,36.52,56.69,36.17,57.09
	 M33.8,56.54c0.65-0.08,1.41-0.15,2.33-0.23c-0.13,0.17-0.31,0.38-0.51,0.58c-0.35,0.35-0.77,0.66-1.17,0.73
	c-0.18,0.03-0.37,0.05-0.53,0.05c-0.35,0-0.63-0.07-0.82-0.18c-0.12-0.08-0.19-0.16-0.23-0.25c0.04,0.05,0.09,0.08,0.14,0.1
	c0.05,0.02,0.11,0.03,0.17,0.03c0.14,0,0.3-0.05,0.42-0.15c0.13-0.09,0.23-0.25,0.23-0.43v-0.01C33.84,56.7,33.82,56.62,33.8,56.54
	 M46.94,52.79c-0.94,1.09-2.71,2.14-6.06,2.5c-4.14,0.43-6.48,0.52-8.12,0.82c-0.09,0.02-0.17,0.03-0.25,0.05
	c-0.19,0-0.41,0.05-0.61,0.15c-0.12,0.04-0.24,0.07-0.36,0.12c-0.3,0.11-0.59,0.24-0.86,0.4c-0.46,0.27-0.89,0.61-1.34,1.05
	c-0.07,0.07-0.15,0.15-0.23,0.23c-0.07-0.08-0.15-0.15-0.22-0.23c-0.45-0.44-0.87-0.78-1.33-1.05c-0.21-0.12-0.44-0.23-0.67-0.33
	c-0.05-0.02-0.1-0.04-0.15-0.06c-0.29-0.24-0.69-0.31-0.97-0.28l-0.03,0c-0.01-0.01-0.03-0.01-0.05-0.02
	c-0.13-0.03-0.27-0.05-0.41-0.08c-1.63-0.28-3.93-0.37-7.92-0.79c-3.35-0.35-5.12-1.41-6.06-2.5c-0.94-1.09-1.09-2.24-1.09-2.84
	c0-0.13,0.01-0.24,0.01-0.31c0-0.04,0.01-0.06,0.01-0.08l0-0.02v0l0.01-0.02l-0.01-10.73c0.03-0.01,0.05-0.03,0.08-0.04
	c0.16-0.1,0.29-0.27,0.32-0.48c0.01-0.04,0.01-0.09,0.01-0.13c0-0.12-0.03-0.24-0.07-0.35v-1.03c0,0,0-0.29-0.34-0.47l0-1.05
	c0.33-0.18,0.34-0.47,0.34-0.47v-1.03c0.05-0.11,0.07-0.22,0.07-0.35c0-0.05,0-0.09-0.01-0.13c-0.03-0.21-0.16-0.38-0.32-0.48
	c-0.03-0.02-0.05-0.03-0.08-0.05l-0.02-17.32h37.81L48.01,32.7c-0.04,0.02-0.09,0.04-0.13,0.07c-0.15,0.1-0.28,0.27-0.32,0.48
	c-0.01,0.05-0.01,0.09-0.01,0.13c0,0.12,0.03,0.24,0.08,0.36v1.02c0,0,0,0.31,0.38,0.49l0,1.01c-0.37,0.17-0.37,0.49-0.37,0.49v1.02
	c-0.05,0.11-0.08,0.23-0.08,0.36c0,0.04,0,0.09,0.01,0.13c0.03,0.21,0.16,0.38,0.32,0.48c0.04,0.02,0.08,0.05,0.12,0.07l-0.01,10.7
	l0,0.02c0,0.01,0.02,0.16,0.02,0.41C48.02,50.55,47.88,51.7,46.94,52.79 M49.61,39.01c-0.01,0.17-0.09,0.44-0.21,0.74
	c-0.18,0.45-0.45,0.97-0.67,1.38c-0.04,0.08-0.08,0.15-0.12,0.21l0.01-1.12c0.07-0.07,0.22-0.24,0.36-0.47
	c0.2-0.31,0.41-0.74,0.41-1.23c0-0.14-0.02-0.28-0.05-0.43l0,0v0c0-0.01-0.01-0.03-0.02-0.06c-0.01-0.03-0.03-0.06-0.06-0.09
	c-0.02-0.02-0.04-0.05-0.06-0.08c-0.1-0.11-0.28-0.23-0.53-0.23h-0.01h-0.01c-0.09,0-0.2,0.02-0.29,0.08c0,0-0.01,0-0.01,0
	c-0.03,0.02-0.06,0.04-0.09,0.07c-0.06,0.06-0.12,0.13-0.16,0.22l-0.01,0.03l0,0.02v0.03c0,0.04,0,0.12,0.04,0.2
	c0.02,0.05,0.07,0.11,0.13,0.15c0.04,0.02,0.09,0.04,0.14,0.05c0.03,0,0.05,0.01,0.08,0.01c0.11,0,0.21-0.04,0.29-0.11
	c0.07-0.07,0.12-0.17,0.12-0.28c0-0.02,0-0.03,0-0.05c0.01,0.02,0.01,0.04,0.01,0.07c0,0.08-0.04,0.18-0.1,0.26
	c0,0.01-0.01,0.01-0.01,0.02c-0.03,0.04-0.06,0.08-0.08,0.1l-0.03,0.03l-0.01,0.01l0,0c-0.02,0.01-0.05,0.03-0.08,0.04
	c-0.06,0.02-0.12,0.03-0.19,0.03c-0.05,0-0.1-0.01-0.15-0.02c-0.07-0.02-0.14-0.05-0.21-0.08c-0.1-0.07-0.17-0.16-0.19-0.28
	c0-0.03,0-0.05,0-0.08c0-0.08,0.02-0.15,0.05-0.23c0.04-0.09,0.1-0.17,0.17-0.24c0.05-0.05,0.11-0.09,0.18-0.12
	c0.11-0.06,0.24-0.09,0.39-0.09c0.03,0,0.07,0,0.1,0c0.22,0.03,0.42,0.18,0.58,0.41c0.01,0.02,0.02,0.04,0.03,0.06
	c0.04,0.07,0.08,0.16,0.12,0.25c0.09,0.23,0.14,0.49,0.13,0.75V39.01z M48.59,39.8l0-0.93c0.1-0.02,0.2-0.06,0.28-0.12l0.01-0.01
	l0.01-0.01c0,0,0.07-0.07,0.15-0.18c0.02-0.03,0.04-0.07,0.07-0.1c0,0.02,0,0.05,0,0.07c0,0.4-0.18,0.79-0.36,1.07
	C48.69,39.67,48.64,39.74,48.59,39.8 M48.59,38.1c0,0.04-0.04,0.09-0.11,0.09l-0.03,0c-0.04-0.01-0.04-0.02-0.06-0.04l-0.01-0.06
	c0.04-0.07,0.08-0.11,0.12-0.13c0.03-0.01,0.05-0.02,0.08-0.03c0.03,0,0.06-0.01,0.08-0.01c0.05,0,0.09,0.01,0.13,0.03l0.04,0.01
	c0.01,0.01,0.01,0.01,0.01,0.02l-0.26,0.09L48.59,38.1z M49.61,32.59c0,0.26-0.05,0.52-0.13,0.75c-0.03,0.09-0.07,0.17-0.12,0.25
	c-0.16,0.27-0.38,0.44-0.62,0.47c-0.03,0-0.07,0-0.1,0c-0.01,0-0.03,0-0.04,0c-0.12-0.01-0.24-0.04-0.34-0.09
	c-0.07-0.03-0.13-0.08-0.18-0.12c-0.02-0.02-0.04-0.04-0.06-0.07c-0.05-0.05-0.08-0.11-0.11-0.17c-0.03-0.07-0.05-0.15-0.05-0.23
	c0-0.03,0-0.06,0-0.08c0.02-0.11,0.07-0.19,0.16-0.26c0.01-0.01,0.02-0.02,0.04-0.02c0.06-0.04,0.13-0.07,0.21-0.08
	c0.05-0.01,0.1-0.02,0.15-0.02c0.07,0,0.14,0.01,0.19,0.03c0.03,0.01,0.06,0.02,0.08,0.04v0c0.01,0.01,0.07,0.07,0.13,0.15
	c0.05,0.08,0.1,0.18,0.1,0.26c0,0.02-0.01,0.05-0.01,0.07c0-0.02,0-0.04,0-0.06c0-0.11-0.05-0.21-0.12-0.27
	c-0.05-0.04-0.11-0.08-0.17-0.1c-0.04-0.01-0.08-0.02-0.12-0.01c-0.03,0-0.05,0-0.08,0.01c-0.05,0.01-0.1,0.02-0.14,0.05
	c-0.06,0.04-0.11,0.1-0.13,0.15c-0.04,0.09-0.04,0.16-0.04,0.2v0.02l0,0.03l0.01,0.03c0.04,0.09,0.1,0.17,0.16,0.22
	c0.03,0.03,0.06,0.05,0.09,0.07c0,0,0,0,0,0c0.05,0.03,0.11,0.05,0.16,0.06v0c0.02,0,0.03,0,0.05,0.01c0.01,0,0.02,0,0.03,0
	c0.02,0,0.03,0,0.05,0h0.01h0h0.01c0.25,0,0.43-0.11,0.53-0.23c0.06-0.07,0.1-0.13,0.12-0.17c0.02-0.03,0.02-0.05,0.02-0.06v0l0,0
	c0.03-0.15,0.05-0.29,0.05-0.43c0-0.49-0.21-0.92-0.41-1.23c-0.15-0.23-0.29-0.39-0.36-0.47l-0.01-1.13
	c0.17,0.31,0.39,0.72,0.59,1.13c0.11,0.24,0.21,0.48,0.29,0.69c0.07,0.21,0.12,0.39,0.13,0.52V32.59z M48.6,33.44l0.13,0.04
	l0.12,0.04c-0.01,0.01-0.01,0.01-0.02,0.02c-0.03,0.01-0.1,0.04-0.17,0.04h0h-0.02c-0.01,0-0.03,0-0.05,0c0,0-0.01,0-0.01,0
	c-0.03,0-0.06-0.01-0.09-0.03c-0.04-0.03-0.08-0.06-0.12-0.13l0.01-0.06c0.02-0.02,0.02-0.03,0.06-0.04l0.03,0
	c0.08,0,0.11,0.05,0.11,0.09L48.6,33.44L48.6,33.44z M48.61,24.49l0-3.23c0.05,0.05,0.1,0.09,0.16,0.13l0.05,0.04l0.07,0.02
	c0.03,0.02,0.21,0.07,0.26,0.08l0.07,0c0.05,0.02,0.09,0,0.14-0.01c0.02-0.02,0.05-0.03,0.02-0.05c-0.07,0-0.16,0.01-0.23,0
	c-0.03-0.01-0.08-0.03-0.12-0.03c-0.09-0.03-0.17-0.07-0.24-0.12l0-0.02c0.05,0,0.52,0.1,0.57,0.11l0-0.02
	c-0.05-0.02-0.51-0.15-0.65-0.2c-0.03-0.03-0.07-0.05-0.1-0.08v-0.07c0.05,0.04,0.11,0.07,0.17,0.08c0.01,0.03,0.04,0.05,0.07,0.05
	c0.06,0.04,0.14,0.04,0.21,0.07c0.05,0,0.1,0.04,0.16,0.04c0.04,0.02,0.11,0,0.15,0.01c0.04-0.02,0.1-0.02,0.14-0.05
	c0-0.04-0.07-0.01-0.09-0.01c0-0.01-0.2-0.04-0.29-0.09c-0.03,0.01-0.04-0.03-0.08-0.02c-0.06-0.03-0.13-0.04-0.2-0.08
	c-0.05-0.03-0.11-0.01-0.14-0.06c0.06-0.03,0.11,0.02,0.17,0c0.03,0.01,0.07,0.03,0.1,0.03v0.01c0.03,0,0.06,0.03,0.09,0.03
	c0.02,0.03,0.06,0.01,0.08,0.04c0.1,0.02,0.19,0.09,0.3,0.07l0.09-0.01c-0.03-0.05-0.11-0.07-0.17-0.09l-0.05-0.02
	c-0.04-0.02-0.1-0.04-0.15-0.04l-0.05-0.03c-0.09-0.01-0.18-0.04-0.26-0.06c-0.03-0.01-0.08-0.02-0.12-0.03l0.06-0.02
	c0.04,0.01,0.07,0,0.12,0.01c0.06-0.01,0.09,0.03,0.15,0.03c0.08,0.03,0.18,0.03,0.25,0.01v-0.02c-0.03-0.01-0.06-0.02-0.1-0.02
	c-0.03-0.03-0.05,0.01-0.07-0.02c-0.08,0-0.16-0.02-0.24-0.04c-0.04,0-0.08,0-0.12,0l0-0.02c0.06-0.04,0.12-0.04,0.18-0.04
	c0.12,0.06,0.24,0.04,0.35,0.09c0.06-0.01,0.11,0.02,0.17-0.02c-0.05-0.04-0.13,0-0.18-0.04c-0.13-0.03-0.27-0.09-0.4-0.09l-0.04,0
	c-0.08,0.02-0.17,0.03-0.24,0.08v-0.64c0.03,0.03,0.06,0.06,0.06,0.09c0.01,0.05,0.09,0.11,0.15,0.13c0.06,0.02,0.07-0.02,0.03-0.07
	c-0.04-0.05-0.12-0.09-0.11-0.12c0.02-0.03,0.09,0.01,0.12,0.05c0.04,0.04,0.08,0.12,0.11,0.13c0.03,0,0.03-0.07,0-0.12
	c-0.04-0.04-0.03-0.09-0.09-0.14c-0.06-0.05-0.11-0.08-0.13-0.1c-0.02-0.02-0.08-0.09-0.11-0.12c-0.01,0-0.01-0.01-0.02-0.02v-0.46
	c0.03,0.06,0.06,0.12,0.09,0.14c0.05,0.02,0.03,0.01,0.07-0.02c0.04-0.03,0.01,0.04,0.07,0.13c0.06,0.09,0,0.17-0.07,0.22
	c-0.06,0.05-0.01,0.07,0.09,0.08c0.1,0,0.21,0.3,0.25,0.34c0.04,0.03,0.06,0.2,0.08,0.17c0.01-0.02,0.07-0.06,0.13-0.05
	c0.06,0,0.1,0.05,0.14,0.07c0.04,0.02,0.12,0.09,0.15,0.11c0.03,0.02,0-0.03-0.02-0.11c-0.01-0.07,0.05-0.08,0.04-0.12
	c-0.01-0.04,0.07,0,0.12,0.03c0.04,0.03,0.13,0.02,0.16,0c0.03-0.02,0.07,0.03,0.07,0.08c0,0.05,0.01,0.04,0.04,0.08
	c0.02,0.04,0.02,0.02,0.06-0.01c0.04-0.04,0.01-0.05,0.06-0.08c0.06-0.02,0.06-0.01,0.1-0.01c0.03,0,0.12,0.06,0.16,0.07
	c0.04,0.02,0.06-0.05,0.04-0.11c-0.01-0.06-0.11-0.05-0.17-0.03c-0.06,0.02-0.05-0.02-0.08-0.08c-0.03-0.06,0,0,0.02-0.06
	c0.01-0.05-0.09-0.05-0.15,0c-0.07,0.04-0.06,0.03-0.08-0.04c-0.01-0.06-0.11-0.06-0.14-0.07c-0.02-0.01-0.06-0.04-0.03-0.08
	c0.02-0.04,0-0.11,0-0.15c0.01-0.04,0.04-0.03,0.03-0.09c-0.01-0.05-0.06-0.01-0.12-0.01c-0.06-0.01-0.07-0.01-0.11-0.05
	c-0.03-0.04,0.02-0.07-0.01-0.09c-0.03-0.02-0.09,0.04-0.17,0.07c-0.08,0.04-0.27-0.03-0.33-0.08c-0.06-0.05-0.01-0.11,0.05-0.14
	c0.06-0.02,0.08-0.05,0.06-0.12c0-0.01-0.01-0.04-0.02-0.06c0.03,0.04,0.11,0,0.13,0.06c0.01,0.06-0.04,0.1-0.08,0.12
	c-0.05,0.02-0.08,0.03-0.09,0.07c-0.01,0.03-0.02,0.09,0.11,0.11c0.13,0.02,0.25-0.16,0.24-0.22c-0.01-0.06,0-0.08,0.05-0.12
	c0.04-0.04-0.05-0.29-0.06-0.35c0-0.07,0.02-0.12,0.07-0.12c0.04,0,0.13-0.08,0.13-0.08c-0.04,0.14-0.07,0.34-0.08,0.39
	c-0.01,0.06,0.08,0.11,0.1,0.15c0.01,0.04,0.01,0.17,0.08,0.24c0.07,0.07,0.06-0.07,0.09,0.03c0.02,0.09,0.12,0.22,0.18,0.22
	c0.06,0,0.03-0.02,0.07,0.05c0.03,0.07,0.13,0.17,0.22,0.22c0.1,0.05,0.11-0.01,0.15-0.06c0.04-0.06,0.07-1.26,0.09-1.46
	c0.01-0.2-0.07-0.19-0.01-0.24c0.07-0.05,0.29-0.31,0.32-0.36c0.03-0.05,0.05-0.1,0.12-0.09c0.06,0.01,0.1,0,0.03,0.05
	c-0.07,0.05-0.01,0.41,0,0.5c0.01,0.08-0.17,0.39-0.17,0.48c-0.01,0.1-0.02,0.11,0.07,0.02c0.08-0.09,0.27-0.34,0.27-0.34
	c0.08,0.11-0.08,0.34-0.17,0.44c-0.09,0.1-0.34,0.34-0.15,0.31c0.19-0.03,0.54-0.55,0.54-0.48c0,0.06-0.11,0.16-0.19,0.26
	c-0.09,0.09-0.23,0.27-0.38,0.49c-0.15,0.21-0.27,0.29-0.22,0.29c0.05,0,0.23-0.12,0.41-0.25c0.18-0.13,0.51-0.42,0.45-0.35
	c-0.07,0.08-0.31,0.26-0.36,0.35c-0.06,0.1-0.33,0.32-0.4,0.37c-0.07,0.05-0.16,0.12-0.1,0.14c0.06,0.02,0.31-0.17,0.65-0.35
	c0.35-0.18,0.53-0.58,0.48-0.41c-0.05,0.17-0.52,0.57-0.89,0.79c-0.38,0.22-0.28,0.23-0.28,0.23c0.06,0.09,0.22-0.03,0.38-0.08
	c0.16-0.05,0.07-0.13,0.58-0.32c0.51-0.19,0.65-0.43,0.73-0.53c0.09-0.1,0.1-0.08,0.17-0.03c0.07,0.05,0.11-0.07,0.11-0.07
	c0.52-0.7,0.68-1.57,0.66-1.69c-0.02-0.11,0-0.22,0.06-0.21c0.06,0.02,0.16,0.03,0.07-0.06c-0.08-0.09-0.12-0.45-0.14-0.8
	c-0.02-0.36-0.28-0.75-0.39-0.94c-0.11-0.19-0.22-0.1-0.28-0.18c-0.05-0.09-0.11-0.11-0.18-0.13c-0.07-0.02-0.19,0.05-0.23,0.13
	c-0.04,0.07,0.03,0.2,0.07,0.41c0.03,0.21-0.25,0.4-0.17,0.3c0.09-0.1,0.07-0.33,0.03-0.39c-0.05-0.06,0-0.19-0.07-0.32
	c-0.07-0.13-0.01-0.1,0.05-0.23c0.06-0.13-0.05-0.08-0.1-0.06c-0.06,0.02-0.22,0.02-0.13-0.04c0.1-0.06,0.17-0.22,0.1-0.14
	c-0.06,0.07-0.24,0.08-0.24,0.08s0.03-0.08,0.07-0.11c0.05-0.04,0.04-0.12-0.05-0.06c-0.09,0.06-0.16,0.04-0.16,0.04
	c0.09-0.1,0.04-0.14-0.05-0.07c-0.08,0.07-0.24,0.01-0.37-0.02c-0.13-0.03-0.17,0.06-0.17,0.06c-0.04-0.05-0.12,0-0.12,0
	c0-0.04-0.05-0.09-0.13-0.11c0,0,0-0.01-0.01-0.01c-0.03-0.05-0.04-0.06-0.05-0.05c-0.1-0.14-0.09-0.28,0.03-0.29
	c0,0-0.12,0.08,0.07,0.19c0.12,0.06,0.17,0.07,0.19,0.06l0.02-0.01c0,0-0.05-0.1-0.12-0.11c-0.06-0.01-0.07-0.08-0.07-0.08
	s0.14-0.01,0.17-0.01c0.03,0,0.06,0.1,0.14,0.09l0.07-0.08l0.08-0.09c0,0,0-0.08-0.04-0.08c-0.04,0-0.02-0.02-0.04,0
	c-0.02,0.02-0.13,0.04-0.16,0.04c-0.03,0,0.02-0.05,0.05-0.06c0.03,0-0.03-0.04-0.07-0.04c-0.05-0.01-0.18-0.03-0.24-0.04
	c-0.06-0.01-0.18-0.01-0.27,0.07c-0.09,0.08-0.19,0.29-0.18,0.35c0.01,0.06,0.1,0.2,0.14,0.22c0.01,0,0.02,0.01,0.03,0.03
	c0,0.01-0.01,0.01-0.01,0.02c-0.16,0.22,0.04,0.39,0.04,0.39l0.06-0.01c-0.01,0-0.11,0.01,0.01-0.11c0.01-0.01,0.03-0.02,0.04-0.03
	c0,0.04,0,0.09-0.03,0.13c-0.11,0.19-0.04,0.09-0.11,0.09c-0.07-0.01-0.39-0.14-0.51-0.16c-0.11-0.02-0.35-0.13-0.68,0.15
	C48.92,15.66,49.11,16,49.11,16s0.27,0.34,0.22,0.39c-0.05,0.05-0.11,0.07-0.11,0.07s-0.02,0-0.05-0.01
	c0.04-0.03,0.1-0.07,0.09-0.09c-0.01-0.04-0.09-0.04-0.07-0.08c0.02-0.04-0.07-0.08-0.11-0.13c-0.04-0.04-0.14,0.04-0.11,0.01
	c0.03-0.03-0.04-0.03-0.09-0.02c-0.05,0.01-0.06-0.03-0.12-0.03c-0.01,0-0.03,0.01-0.05,0.02c0-0.01,0-0.01,0-0.02
	c-0.04-0.26,0.05-0.22,0.11-0.29c0.06-0.08,0.16-0.15,0.15-0.41c-0.01-0.26,0.29-0.16,0.41-0.26c0.12-0.1,0.18-0.26,0.14-0.37
	c-0.03-0.12,0.04-0.03,0.03-0.09c-0.02-0.05-0.08-0.15-0.09-0.2c-0.02-0.05,0-0.11-0.04-0.13c-0.04-0.01-0.07-0.08-0.11-0.05
	c-0.04,0.03-0.11,0.08-0.12,0.16c0,0.08-0.03,0.19,0.02,0.25c0.05,0.06,0.06,0.08,0.11,0.08c0.04,0,0.05,0.06-0.02,0.1
	c-0.06,0.03-0.14,0.12-0.22,0.13c-0.08,0.01-0.18,0.02-0.25,0.08c-0.07,0.06-0.13,0.09-0.15,0.24c-0.01,0.14,0,0.26-0.08,0.35
	l0-0.87h-1.34c0.06-0.04,0.12-0.07,0.18-0.11c0.04-0.03,0.07,0.02,0.12,0.01l0.08,0.02c0.02-0.01,0.07-0.01,0.08-0.05
	c-0.01-0.05-0.07-0.07-0.07-0.11c0.04-0.01,0.09,0.03,0.13,0.03c0.06,0.06,0.1-0.01,0.16-0.01c0.1-0.04-0.05-0.07-0.04-0.12
	c0.05-0.02,0.11-0.01,0.15-0.04c0.18-0.09-0.08-0.11-0.07-0.21c-0.05-0.06-0.13-0.01-0.19,0.01c-0.03,0.01-0.07,0.03-0.09-0.01
	l0.02-0.05l-0.04-0.04c-0.08,0-0.14,0.05-0.18,0.12c-0.03,0.02-0.04,0.06-0.08,0.06c0-0.04-0.02-0.08-0.04-0.1
	c-0.04,0.04-0.07,0.06-0.1,0.1c0,0.06,0.03,0.13,0,0.2c-0.11,0.06-0.03,0.18-0.09,0.26c-0.01,0.02-0.02,0.04-0.04,0.06h-1.48
	l10.18-6.24c0,0,0,0.01,0,0.01c0.88,2.12,1.65,4.83,1.78,8.02c0,0.06,0,0.12,0.01,0.19L48.61,24.49z M48.61,20.88L48.61,20.88
	L48.61,20.88L48.61,20.88z M48.92,17.08c0.11,0.18,0.05,0.19,0.05,0.19c-0.15,0.04,0,0.23,0.14,0.34c0.14,0.1,0.06,0.23,0.15,0.23
	c0.09,0.01,0.24-0.22,0.17-0.05c-0.07,0.16-0.05,0.27-0.11,0.31c-0.05,0.05-0.11,0.28-0.13,0.35c-0.02,0.07-0.08,0.03-0.13-0.06
	c-0.05-0.09-0.04,0.02-0.15-0.15c-0.06-0.09-0.14-0.1-0.2-0.08v0c-0.02-0.01-0.02-0.05-0.01-0.09c0.02-0.04,0.02-0.05,0.06-0.12
	c0.04-0.08,0.05-0.17,0-0.13c-0.05,0.04-0.07,0.03-0.07-0.04c-0.01-0.08-0.07-0.1-0.03-0.18c0.04-0.09,0.01-0.11-0.01-0.15
	c0-0.01-0.01-0.01-0.02,0l0-0.89c0.04,0.04,0.08,0.07,0.11,0.09c0.06,0.04,0.09,0.14,0.13,0.2C48.89,16.88,48.81,16.89,48.92,17.08
	 M50.13,15.64c0.05,0.02,0.06,0.02,0.03,0.01c0.09,0.03,0.34,0.11,0.52-0.01c0.07-0.04,0.11-0.11,0.14-0.19
	c0.05,0.05,0.14,0.09,0.19,0.13c0.06,0.05,0.13,0.01,0.15,0.06c0.02,0.04,0.03,0.09,0,0.09c-0.03,0-0.07,0.02-0.16,0.01
	c-0.09-0.01-0.12,0.1-0.28,0.09c-0.16-0.01-0.04,0.06-0.29,0.05c-0.25-0.01-0.33,0.14-0.51,0.35c-0.17,0.21-0.06,0.27-0.16,0.3
	c-0.09,0.04-0.14,0.16-0.18,0.18c-0.04,0.02-0.06,0.07-0.12-0.01c-0.02-0.03-0.04-0.04-0.06-0.04c0.24-0.04,0.13-0.07,0.17-0.13
	c0.04-0.07,0.19-0.22-0.13-0.59c0,0-0.23-0.27,0.16-0.44c0,0,0.47,0.12,0.55,0.13C50.14,15.65,50.13,15.64,50.13,15.64 M50.84,15.26
	c0.13,0.06,0.26,0.19,0.22,0.2c-0.04,0-0.16-0.07-0.21-0.11c0,0,0,0-0.01-0.01C50.84,15.31,50.84,15.28,50.84,15.26 M49.19,19.29
	c-0.03-0.09-0.07-0.2-0.13-0.3c-0.04-0.06-0.06-0.11-0.08-0.15c0.03,0.01,0.06,0.02,0.09,0.03c0.16,0.07,0.11,0.08,0.13,0.14
	C49.22,19.07,49.19,19.21,49.19,19.29 M48.78,18.46c0,0.03,0,0.03-0.01,0.03c-0.01-0.02-0.01-0.03-0.02-0.05
	c-0.01-0.02-0.01-0.04-0.02-0.07c0.01,0.01,0.01,0.02,0.03,0.02C48.8,18.4,48.77,18.41,48.78,18.46 M2.02,62.68h1.64v-0.59H2.02
	v-0.72H3.8v-0.6H1.32v3.38h2.57v-0.61H2.02V62.68z M10.65,63.98c-0.02-0.03-0.03-0.09-0.04-0.17c0-0.11,0-0.21,0-0.29v-1.14
	c0-0.3-0.11-0.5-0.32-0.61c-0.21-0.11-0.46-0.16-0.73-0.16c-0.42,0-0.72,0.11-0.89,0.33c-0.11,0.14-0.17,0.32-0.19,0.54H9.1
	c0.01-0.1,0.04-0.17,0.09-0.23c0.07-0.07,0.17-0.12,0.33-0.12c0.14,0,0.24,0.02,0.32,0.06c0.07,0.04,0.1,0.11,0.1,0.21
	c0,0.09-0.04,0.15-0.14,0.19c-0.05,0.02-0.14,0.04-0.26,0.06l-0.22,0.03c-0.25,0.03-0.44,0.08-0.58,0.16
	c-0.24,0.14-0.36,0.36-0.36,0.67c0,0.23,0.07,0.42,0.22,0.55c0.15,0.13,0.34,0.19,0.56,0.19c0.18,0,0.34-0.03,0.48-0.12
	c0.12-0.07,0.22-0.15,0.31-0.25c0.01,0.06,0.01,0.11,0.03,0.15c0.01,0.04,0.02,0.09,0.03,0.14h0.71v-0.1
	C10.7,64.04,10.67,64.01,10.65,63.98 M9.95,63.18c0,0.22-0.07,0.37-0.18,0.46c-0.12,0.08-0.26,0.12-0.4,0.12
	c-0.09,0-0.17-0.02-0.23-0.07c-0.06-0.05-0.09-0.13-0.09-0.25c0-0.12,0.05-0.21,0.15-0.28c0.06-0.03,0.16-0.07,0.3-0.09l0.15-0.03
	c0.07-0.02,0.13-0.03,0.17-0.04c0.04-0.02,0.09-0.04,0.13-0.07V63.18z M7.74,60.98H7.09v0.7H6.74v0.47h0.35v1.54
	c0,0.15,0.04,0.27,0.11,0.35c0.11,0.12,0.32,0.17,0.63,0.16l0.31-0.01v-0.49l-0.07,0l-0.06,0c-0.13,0-0.22-0.01-0.24-0.04
	c-0.03-0.03-0.04-0.09-0.04-0.19v-1.32h0.41v-0.47H7.74V60.98z M15.17,61.57c-0.43,0-0.75,0.13-0.97,0.4
	c-0.21,0.26-0.32,0.58-0.32,0.94c0,0.37,0.11,0.68,0.32,0.94c0.22,0.26,0.54,0.39,0.97,0.39c0.43,0,0.75-0.13,0.96-0.39
	c0.21-0.26,0.32-0.57,0.32-0.94c0-0.36-0.11-0.68-0.32-0.94C15.92,61.71,15.6,61.57,15.17,61.57 M15.61,63.49
	c-0.1,0.14-0.25,0.2-0.44,0.2c-0.19,0-0.35-0.07-0.44-0.2c-0.11-0.14-0.15-0.33-0.15-0.58c0-0.25,0.05-0.45,0.15-0.58
	c0.1-0.14,0.25-0.2,0.44-0.2c0.19,0,0.33,0.06,0.44,0.2c0.1,0.13,0.16,0.32,0.16,0.58C15.76,63.16,15.71,63.35,15.61,63.49
	 M34.02,69.62c-0.02-0.03-0.03-0.09-0.04-0.17c0-0.11,0-0.21,0-0.29v-1.14c0-0.3-0.11-0.51-0.31-0.62
	c-0.22-0.11-0.46-0.16-0.74-0.16c-0.42,0-0.72,0.11-0.89,0.33c-0.11,0.15-0.17,0.32-0.19,0.54h0.63c0.01-0.09,0.04-0.18,0.09-0.23
	c0.06-0.07,0.18-0.11,0.33-0.11c0.14,0,0.24,0.02,0.31,0.06c0.07,0.04,0.11,0.11,0.11,0.21c0,0.09-0.05,0.15-0.14,0.19
	c-0.05,0.02-0.14,0.04-0.26,0.06l-0.22,0.02c-0.26,0.04-0.45,0.09-0.58,0.16c-0.24,0.14-0.36,0.36-0.36,0.67
	c0,0.24,0.07,0.42,0.22,0.55c0.15,0.13,0.33,0.19,0.56,0.19c0.18,0,0.34-0.04,0.48-0.12c0.12-0.07,0.22-0.15,0.31-0.25
	c0,0.06,0.01,0.1,0.02,0.15c0.01,0.04,0.02,0.09,0.04,0.14h0.71v-0.1C34.07,69.68,34.04,69.65,34.02,69.62 M33.32,68.82
	c0,0.22-0.06,0.37-0.19,0.45c-0.11,0.08-0.25,0.13-0.39,0.13c-0.09,0-0.17-0.02-0.23-0.07c-0.06-0.05-0.09-0.13-0.09-0.24
	c0-0.12,0.05-0.21,0.15-0.28c0.06-0.03,0.16-0.06,0.3-0.09l0.15-0.03c0.07-0.01,0.13-0.03,0.18-0.04c0.04-0.02,0.08-0.04,0.12-0.06
	V68.82z M34.56,69.79h0.66v-3.38h-0.66V69.79z M32,64.99c0.09-0.11,0.23-0.41,0.39-0.88l0.86-2.46h-0.7l-0.52,1.85l-0.55-1.85h-0.72
	l0.92,2.61c0,0.02-0.01,0.07-0.04,0.15c-0.03,0.08-0.07,0.14-0.11,0.16c-0.04,0.03-0.09,0.05-0.15,0.06
	c-0.06,0.01-0.12,0.01-0.18,0.01l-0.08,0v0.52c0.07,0,0.13,0,0.16,0.01h0.14C31.71,65.16,31.9,65.11,32,64.99 M37.47,67.65
	c-0.09-0.17-0.22-0.29-0.39-0.36c-0.09-0.04-0.2-0.06-0.32-0.06c-0.34,0-0.6,0.12-0.78,0.38c-0.18,0.25-0.28,0.56-0.28,0.94
	c0,0.39,0.09,0.69,0.29,0.92c0.19,0.22,0.45,0.34,0.77,0.34c0.21,0,0.37-0.05,0.51-0.15c0.07-0.05,0.14-0.13,0.2-0.24v0.16
	c0,0.24-0.03,0.41-0.08,0.51c-0.08,0.16-0.23,0.24-0.47,0.24c-0.16,0-0.29-0.03-0.35-0.09c-0.05-0.03-0.08-0.09-0.09-0.16h-0.71
	c0.02,0.24,0.14,0.44,0.34,0.56c0.2,0.13,0.46,0.19,0.78,0.19c0.53,0,0.89-0.14,1.07-0.42c0.11-0.16,0.17-0.41,0.17-0.73v-2.37
	h-0.64V67.65z M37.31,69.08c-0.11,0.12-0.23,0.18-0.39,0.18c-0.23,0-0.39-0.11-0.47-0.32c-0.05-0.11-0.07-0.24-0.07-0.39
	c0-0.17,0.02-0.31,0.07-0.43c0.09-0.22,0.24-0.32,0.47-0.32c0.16,0,0.3,0.06,0.4,0.19c0.1,0.12,0.15,0.3,0.15,0.54
	C37.47,68.78,37.42,68.97,37.31,69.08 M36.64,63.61c-0.1,0.04-0.24,0.05-0.41,0.05c-0.28,0-0.48-0.06-0.6-0.21
	c-0.07-0.07-0.11-0.19-0.13-0.34h-0.67c0,0.35,0.12,0.63,0.38,0.83c0.26,0.2,0.61,0.3,1.05,0.3c0.43,0,0.77-0.1,1.01-0.31
	c0.24-0.21,0.36-0.46,0.36-0.77c0-0.3-0.1-0.53-0.3-0.69c-0.13-0.1-0.32-0.18-0.58-0.25l-0.59-0.14c-0.23-0.05-0.38-0.1-0.45-0.14
	c-0.11-0.06-0.17-0.14-0.17-0.27c0-0.13,0.06-0.23,0.17-0.31c0.11-0.07,0.26-0.11,0.45-0.11c0.17,0,0.31,0.03,0.42,0.08
	c0.17,0.09,0.26,0.23,0.27,0.43h0.68c-0.01-0.36-0.14-0.63-0.4-0.82c-0.26-0.19-0.56-0.28-0.93-0.28c-0.43,0-0.76,0.1-0.98,0.3
	c-0.22,0.2-0.34,0.45-0.34,0.75c0,0.33,0.11,0.57,0.34,0.73c0.13,0.09,0.38,0.18,0.74,0.26l0.37,0.08c0.21,0.05,0.37,0.1,0.47,0.16
	c0.1,0.06,0.15,0.15,0.15,0.26C36.95,63.4,36.85,63.54,36.64,63.61 M30.68,67.61c-0.07-0.12-0.17-0.21-0.29-0.27
	c-0.12-0.07-0.25-0.1-0.4-0.1c-0.33,0-0.59,0.13-0.79,0.37c-0.19,0.25-0.3,0.58-0.3,1c0,0.37,0.1,0.68,0.3,0.91
	c0.2,0.24,0.44,0.35,0.74,0.35c0.18,0,0.32-0.03,0.44-0.1c0.12-0.07,0.22-0.17,0.32-0.32v0.34h0.63v-3.38h-0.66V67.61z M30.55,69.11
	c-0.09,0.14-0.24,0.21-0.42,0.21c-0.19,0-0.32-0.07-0.42-0.21c-0.09-0.14-0.14-0.32-0.14-0.55c0-0.21,0.05-0.39,0.14-0.54
	c0.09-0.15,0.23-0.22,0.42-0.22c0.12,0,0.23,0.05,0.33,0.12c0.15,0.13,0.23,0.35,0.23,0.66C30.69,68.8,30.64,68.97,30.55,69.11
	 M27.76,66.99h0.67v-0.6h-0.67V66.99z M25.26,61.65v2.5h0.66v-1.2c0-0.2,0.02-0.35,0.07-0.44c0.09-0.17,0.27-0.26,0.53-0.26h0.08
	c0.03,0,0.07,0,0.11,0.01V61.6c-0.03,0-0.05,0-0.06,0h-0.03c-0.19,0-0.36,0.05-0.47,0.15c-0.07,0.06-0.16,0.18-0.27,0.34v-0.43
	H25.26z M26.43,67.7h-1.32v-1.29h-0.69v3.38h0.69v-1.51h1.32v1.51h0.7v-3.38h-0.7V67.7z M27.76,69.79h0.67v-2.5h-0.67V69.79z
	 M24.54,63.84c0.18-0.25,0.27-0.58,0.27-0.96c0-0.37-0.09-0.68-0.28-0.92c-0.19-0.23-0.45-0.35-0.78-0.35
	c-0.18,0-0.33,0.04-0.45,0.11c-0.1,0.06-0.19,0.15-0.28,0.27v-1.2h-0.65v3.38h0.64v-0.32c0.09,0.12,0.17,0.21,0.25,0.26
	c0.12,0.08,0.29,0.12,0.5,0.12C24.1,64.22,24.35,64.09,24.54,63.84 M23.99,63.48c-0.1,0.13-0.23,0.2-0.4,0.2
	c-0.2,0-0.34-0.07-0.44-0.21c-0.09-0.14-0.15-0.32-0.15-0.53c0-0.18,0.03-0.33,0.07-0.44c0.09-0.22,0.25-0.33,0.5-0.33
	c0.23,0,0.39,0.11,0.49,0.33c0.04,0.12,0.06,0.26,0.06,0.44C24.13,63.16,24.08,63.34,23.99,63.48 M29.1,63.87
	c0.14-0.15,0.22-0.3,0.24-0.45h-0.67c-0.04,0.07-0.08,0.13-0.13,0.17c-0.09,0.07-0.21,0.12-0.36,0.12c-0.14,0-0.26-0.03-0.36-0.1
	c-0.16-0.1-0.25-0.27-0.26-0.52h1.82c0-0.21,0-0.38-0.02-0.5c-0.04-0.2-0.1-0.37-0.2-0.52c-0.11-0.17-0.26-0.29-0.44-0.37
	c-0.17-0.07-0.37-0.12-0.59-0.12c-0.36,0-0.66,0.11-0.89,0.35c-0.23,0.23-0.34,0.57-0.34,1c0,0.46,0.12,0.79,0.38,1
	c0.25,0.2,0.54,0.31,0.88,0.31C28.57,64.24,28.88,64.12,29.1,63.87 M27.75,62.27c0.09-0.09,0.22-0.14,0.39-0.14
	c0.15,0,0.29,0.04,0.38,0.13c0.11,0.09,0.16,0.22,0.18,0.39h-1.12C27.6,62.49,27.66,62.37,27.75,62.27 M50.34,63.98
	c-0.02-0.03-0.04-0.09-0.04-0.17c0-0.11,0-0.21,0-0.29v-1.14c0-0.3-0.1-0.5-0.32-0.61c-0.22-0.11-0.46-0.16-0.74-0.16
	c-0.43,0-0.72,0.11-0.89,0.33c-0.11,0.14-0.17,0.32-0.18,0.54h0.63c0.01-0.1,0.05-0.17,0.1-0.23c0.06-0.07,0.17-0.12,0.33-0.12
	c0.14,0,0.24,0.02,0.32,0.06c0.07,0.04,0.11,0.11,0.11,0.21c0,0.08-0.05,0.15-0.14,0.19c-0.06,0.02-0.14,0.04-0.26,0.06l-0.23,0.03
	c-0.25,0.03-0.45,0.08-0.58,0.16c-0.24,0.14-0.36,0.36-0.36,0.67c0,0.23,0.08,0.42,0.22,0.55c0.15,0.13,0.33,0.19,0.56,0.19
	c0.18,0,0.34-0.03,0.48-0.12c0.12-0.07,0.22-0.15,0.32-0.25c0,0.06,0.01,0.11,0.02,0.15c0.01,0.04,0.02,0.09,0.04,0.14h0.71v-0.1
	C50.4,64.04,50.36,64.01,50.34,63.98 M49.65,63.18c0,0.22-0.07,0.37-0.18,0.46c-0.12,0.08-0.26,0.12-0.4,0.12
	c-0.09,0-0.16-0.02-0.23-0.07c-0.06-0.05-0.09-0.13-0.09-0.25c0-0.12,0.05-0.21,0.16-0.28c0.05-0.03,0.16-0.07,0.3-0.09l0.15-0.03
	c0.07-0.02,0.13-0.03,0.17-0.04c0.04-0.02,0.08-0.04,0.13-0.07V63.18z M30.35,43.74l-0.21-0.79l-0.42,0.76
	C29.93,43.76,30.17,43.75,30.35,43.74 M23.46,41.53v0.58c0.02,0.01,0.03,0.01,0.06,0.02L23.46,41.53z M43.36,43.92
	c-0.29,0.06-0.51-0.05-0.76-0.18c-0.24-0.13-0.59-0.26-0.77-0.25c-0.19,0.01-0.35,0.16-0.55,0.04c-0.2-0.11-0.71,0-0.82,0.09
	c-0.11,0.09-0.45,0.15-0.78,0.11c-0.34-0.03-0.51,0.13-0.63,0.22c-0.12,0.09-0.27,0.24-0.45,0.24c-0.18,0-0.44,0.28-0.44,0.28
	s0.26,0.09,0.42,0.09c0.17,0,0.72-0.02,1.11,0.12c0.39,0.13,1.06,0.05,1.17,0c0.11-0.05,0.4-0.25,0.81-0.08
	c0.41,0.17,0.65,0.02,0.89,0c0.24-0.02,0.39-0.17,0.39-0.17s0.44,0.04,1.02,0c0.57-0.04,0.44-0.23,0.44-0.23
	C44.39,44.1,43.65,43.86,43.36,43.92 M25.67,42.59l-0.21,0.56c0.09,0.01,0.23,0.03,0.37,0.04L25.67,42.59z M30.73,50.96
	c-0.3,0.06-0.52-0.05-0.76-0.18c-0.24-0.13-0.59-0.26-0.77-0.25c-0.19,0.01-0.35,0.15-0.55,0.05c-0.19-0.11-0.71,0-0.82,0.09
	c-0.11,0.09-0.44,0.15-0.78,0.11c-0.33-0.04-0.51,0.13-0.63,0.22c-0.12,0.09-0.26,0.24-0.45,0.24c-0.18,0-0.44,0.28-0.44,0.28
	s0.26,0.09,0.42,0.09c0.16,0,0.72-0.02,1.1,0.11c0.39,0.14,1.05,0.05,1.17,0c0.11-0.05,0.41-0.24,0.81-0.08
	c0.41,0.17,0.65,0.02,0.88,0c0.24-0.02,0.39-0.17,0.39-0.17s0.44,0.04,1.01,0c0.58-0.03,0.45-0.24,0.45-0.24
	C31.76,51.15,31.02,50.91,30.73,50.96 M15.07,18.38l0.01,0.03v0.86h1.83l-0.77-1.66h0c0-0.01-0.02-0.01-0.05-0.01
	c-0.07,0-0.24,0.04-0.55,0.26c-0.43,0.29-0.46,0.46-0.46,0.5V18.38L15.07,18.38L15.07,18.38z M33.8,42.28l-0.35,0.91
	c0.16,0,0.32-0.06,0.45-0.12L33.8,42.28z M18.27,19.27l0.78-1.67c-0.01-0.01-0.01-0.02-0.01-0.04v0l0-0.01l-0.02-0.05
	c-0.02-0.04-0.05-0.11-0.14-0.17c-0.15-0.12-0.47-0.27-1.12-0.27c-0.03,0-0.05,0-0.08,0h-0.05c-0.02,0-0.05,0-0.08,0
	c-0.63,0-0.95,0.13-1.11,0.26c-0.12,0.09-0.16,0.19-0.17,0.22l0.8,1.72H18.27z M20.22,19.27v-0.86l0.01-0.04v-0.01
	c0-0.04-0.03-0.22-0.45-0.5c-0.31-0.22-0.48-0.26-0.55-0.26h-0.01l-0.78,1.67H20.22z M33.96,20.52c0.47,0.36,1,0.38,1.66,0.84
	c-0.06,0-0.11,0.01-0.17,0.02c-0.04,0.01-0.09,0.01-0.15,0.01c-0.16,0-0.37-0.04-0.54-0.07c-0.08-0.02-0.15-0.04-0.21-0.05
	c-0.05-0.01-0.08-0.02-0.08-0.02l-0.51-0.16l0.36,0.4c0.29,0.32,0.6,0.5,0.89,0.59c-0.04,0.02-0.08,0.04-0.1,0.05
	c-0.16,0.08-0.99,0.35-0.95,0.36c0.03,0,0.38,0.26,1.47,0.26c0.78,0,1.07-0.31,1.18-0.49c0.48,0.28,0.92,0.44,1.11,0.51
	c-0.05,0.15-0.09,0.27-0.11,0.34h0c-0.19-0.04-0.73-0.15-0.87-0.25c-0.17-0.13-0.27-0.26-0.47-0.13c-0.21,0.12-0.09,0.29,0.08,0.32
	c0.17,0.03,0.34-0.05,0.47,0.02c0.13,0.08,0.15,0.11,0.15,0.11s-0.14,0.11-0.34,0.08c-0.19-0.03-0.37-0.05-0.47,0.16
	c-0.11,0.21,0.16,0.35,0.3,0.28c0.15-0.07,0.16-0.21,0.35-0.28c0.1-0.04,0.27-0.08,0.44-0.12c-0.04,0.05-0.07,0.1-0.12,0.17
	c-0.05,0.08-0.08,0.16-0.08,0.25c0,0.16,0.09,0.28,0.16,0.38c0.07,0.09,0.13,0.17,0.13,0.2l0.01,0.04c0,0.02-0.01,0.05-0.03,0.1
	c-0.02,0.05-0.04,0.13-0.04,0.22c0,0.05,0.01,0.11,0.02,0.16c0.02,0.07,0.07,0.13,0.12,0.17c0.08,0.06,0.17,0.08,0.27,0.1
	c0.1,0.01,0.22,0.02,0.34,0.02c0.3,0,0.66-0.03,1.05-0.06c0.17-0.01,0.43-0.01,0.75-0.01h0.37c-0.03,0.24-0.08,0.51-0.14,0.61
	c0,0-0.61,0.09-0.82,0.18c0,0-0.13,0.04-0.26,0c-0.13-0.03-0.34,0.15-0.25,0.29c0.09,0.14,0.27,0.19,0.34,0.08
	c0.07-0.11,0.05-0.16,0.19-0.24c0.14-0.07,0.63-0.18,0.78-0.14c0,0-0.01,0.02-0.03,0.07c-0.09,0.04-0.5,0.24-0.96,0.55
	c-0.52,0.35-1.09,0.83-1.3,1.43l-0.09,0.27l0.28-0.08c0,0,0.14-0.04,0.34-0.12c-0.1,0.18-0.18,0.38-0.23,0.6l-0.07,0.31l0.28-0.15
	c0,0,0.12-0.07,0.29-0.15c0.17-0.08,0.39-0.18,0.57-0.25c0.22-0.09,0.48-0.29,0.71-0.57c0.01-0.02,0.03-0.03,0.04-0.05
	c0.01,0.05,0.02,0.09,0.03,0.14c0,0,0,0.04,0.01,0.1c-0.57,0.06-0.87,1.36-0.91,1.65c-0.05,0.31-0.48,1.04-0.48,1.04
	c0.55-0.39,0.9-0.77,1.13-1.12c0.02,0.15,0.05,0.27,0.06,0.34c0.07,0.3-0.04,1.14-0.04,1.14c1.11-1.81,0.53-2.79,0.37-3
	c0.04-0.09,0.07-0.19,0.07-0.24c0,0,0.02-0.06,0.1,0.09c0.07,0.16,0.15,0.44,0.19,0.55c0.04,0.11,0.12,0.26,0.12,0.39
	c-0.01,0.13-0.02,0.31,0.23,0.3c0,0,0.21-0.17-0.05-0.33c0,0-0.1-0.17-0.1-0.38c0,0,0.27,0.04,0.38,0.16c0,0,0.03,0.11,0.09,0.15
	c0.05,0.05,0.22,0.05,0.29-0.01c0.07-0.06,0.03-0.27-0.12-0.29c-0.15-0.03-0.25-0.02-0.26-0.02c-0.02-0.01-0.39-0.09-0.5-0.33
	c-0.11-0.25-0.23-0.43-0.23-0.43s0.01-0.28,0.03-0.61c0.34,0.81,0.97,1.1,0.96,1.09c0-0.02-0.01-0.64-0.31-1.37
	c-0.23-0.55-0.48-0.71-0.6-0.76l0,0c0.02-0.27,0.04-0.59,0.11-0.89c0.23,0,0.48,0,0.73,0c0.45,0,0.9,0,1.27-0.03
	c0.19-0.01,0.34-0.02,0.48-0.05c0.14-0.02,0.24-0.05,0.34-0.1c0.16-0.1,0.26-0.22,0.33-0.34c0.07-0.13,0.09-0.26,0.09-0.39
	c0-0.14-0.03-0.27-0.05-0.37l0-0.07c0-0.07,0.02-0.15,0.05-0.25c0.03-0.1,0.07-0.21,0.07-0.34c0-0.07-0.01-0.14-0.04-0.22
	c-0.04-0.09-0.12-0.14-0.19-0.17c-0.07-0.02-0.15-0.03-0.23-0.03c-0.04,0-0.08,0-0.13,0.01c-0.05-0.29-0.11-0.53-0.18-0.74
	c0.13-0.04,0.34-0.08,0.44,0.07c0.16,0.23,0.44,0.17,0.49,0.05c0.06-0.12,0.03-0.23-0.11-0.33c-0.14-0.1-0.35,0.07-0.35,0.07
	c-0.1-0.03-0.35-0.01-0.52,0c-0.04-0.1-0.07-0.19-0.11-0.28c0.04-0.05,0.09-0.11,0.15-0.17l0.03,0.03l0.03,0.03l0.14-0.14
	c1.04,0.05,1.84-0.31,1.98-0.53c0.13-0.24,0.7-0.64,0.7-0.64s-0.1,0-0.51,0.07c0.43-0.33,0.58-0.58,0.59-0.6l0.15-0.26l-0.3,0.03
	c-0.2,0.02-0.4,0.07-0.6,0.15c0.27-0.34,0.47-0.71,0.61-1.01c0.02-0.05,0.04-0.1,0.06-0.14c0.01-0.02,0.02-0.04,0.02-0.06
	c0.12-0.3,0.15-0.48,0.09-0.39c-0.08,0.13-0.13,0.22-0.2,0.31c-0.09,0.12-0.23,0.24-0.54,0.43c-0.48,0.3-0.87,0.65-1.02,0.91
	c0.01-0.08,0.01-0.15,0.01-0.21c0-0.09,0-0.14,0-0.15l-0.03-0.32l-0.22,0.23c0,0-0.12,0.13-0.28,0.33
	c-0.05-0.84-0.36-1.21-0.38-1.22l-0.38-0.41l0.13,0.54c0.01,0.05,0.02,0.11,0.02,0.17c0,0.31-0.19,0.72-0.38,1.33
	c-0.06,0.21-0.08,0.43-0.08,0.62c0,0.5,0.15,0.88,0.15,0.89L43,21.33l-0.07,0.06c-0.41-0.8-0.94-0.9-1.44-1.62
	c-0.7-1-1.74-1.1-2.42-0.99c-0.68,0.11-1.48,0.99-1.42,1.95c0.06,0.96,0.82,0.9,0.82,0.9c-0.15,0.12-0.32,0.5-0.45,0.86
	c-0.25-0.02-0.53-0.14-0.84-0.33c0.01-0.04,0.02-0.14,0.02-0.29c0-0.53-0.16-1.66-1.25-2.83l-0.29-0.31l0.03,0.42
	c0,0,0.04,0.57,0.22,1.25c0.1,0.38,0.24,0.79,0.44,1.15c-0.01-0.01-0.03-0.02-0.04-0.03c-0.07-0.1-0.61-0.93-0.69-1.35
	c0,0,0.21-0.22,0-0.43c-0.21-0.2-0.38,0.04-0.31,0.2c0.06,0.16,0.22,0.32,0.22,0.32s0.38,0.55,0.33,0.86
	c-0.12-0.11-0.24-0.23-0.36-0.34c-1-0.98-1.89-0.75-1.89-0.75S33.39,20.09,33.96,20.52 M38.38,27.65c0.16-0.26,0.41-0.51,0.68-0.72
	c-0.16,0.18-0.3,0.38-0.36,0.59C38.58,27.57,38.47,27.61,38.38,27.65 M38.96,28.11c-0.11,0.05-0.22,0.1-0.32,0.15
	c0.09-0.21,0.21-0.4,0.36-0.56l0.04-0.02c0.03-0.02,0.07-0.03,0.11-0.05C39.06,27.78,39,27.94,38.96,28.11 M45.58,19.72
	c-0.17,0.16-0.43,0.36-0.8,0.57c0.09-0.09,0.13-0.15,0.13-0.15c-0.09,0.01-0.18,0.03-0.27,0.06C44.92,20,45.25,19.82,45.58,19.72
	 M43.49,18.89c0.05,0.19,0.09,0.43,0.09,0.74c0,0.06,0,0.13,0,0.2c-0.1,0.15-0.19,0.32-0.27,0.49c-0.01-0.23-0.06-0.39-0.12-0.51
	C43.3,19.45,43.42,19.16,43.49,18.89 M38.03,23.41c0.14,0.02,0.43,0.04,0.8,0.06c0.37,0.02,0.8,0.03,1.2,0.03
	c0.31,0,0.61-0.01,0.83-0.03c0.75-0.09,1.58-0.31,1.58-0.31h0l0.01,0c0,0,0.04-0.01,0.1-0.03c0.16-0.05,0.5-0.14,0.76-0.17
	c0.05-0.01,0.09-0.01,0.14-0.01c0.06,0,0.11,0.01,0.13,0.02l0.02,0.01c0.01,0.03,0.01,0.06,0.01,0.1c0,0.07-0.02,0.15-0.05,0.24
	c-0.03,0.09-0.07,0.21-0.07,0.34c0,0.04,0,0.08,0.02,0.13c0.02,0.1,0.05,0.21,0.05,0.31c0,0.09-0.02,0.17-0.06,0.25
	c-0.04,0.08-0.1,0.15-0.23,0.23c-0.02,0.02-0.11,0.04-0.22,0.07c-0.37,0.06-1.03,0.07-1.71,0.07c-0.21,0-0.43,0-0.64,0
	c-0.09,0-0.18,0-0.27,0c-0.14,0-0.28,0-0.41,0c-0.32,0-0.58,0-0.77,0.02c-0.39,0.03-0.76,0.06-1.03,0.06
	c-0.16,0-0.29-0.01-0.36-0.03c-0.04-0.01-0.06-0.02-0.07-0.03l-0.01-0.01c-0.01-0.03-0.01-0.06-0.01-0.08
	c0-0.04,0.01-0.07,0.03-0.12c0.02-0.04,0.04-0.11,0.04-0.2c0-0.04,0-0.08-0.01-0.12c-0.04-0.13-0.12-0.21-0.18-0.29
	c-0.06-0.08-0.1-0.16-0.09-0.2c0-0.03,0.01-0.05,0.03-0.09c0.06-0.11,0.12-0.17,0.15-0.2c0.03-0.02,0.05-0.03,0.11-0.03h0.01
	C37.9,23.39,37.96,23.4,38.03,23.41 M36.15,20.19c-0.05-0.22-0.09-0.42-0.12-0.59c0.41,0.53,0.63,1.02,0.74,1.44
	C36.58,20.6,36.33,20.33,36.15,20.19 M36,21.76c0.03,0.01,0.05,0.03,0.08,0.05c-0.1,0.02-0.22,0.04-0.36,0.04
	c-0.21,0-0.45-0.04-0.71-0.19c0.1,0.01,0.2,0.02,0.3,0.02c0.07,0,0.15-0.01,0.22-0.02c0.03-0.01,0.07-0.01,0.11-0.01
	C35.74,21.66,35.88,21.7,36,21.76 M22.06,21.75c0.11,0,0.15-0.02,0.16-0.03l0,0l-0.01-0.02v-1.97c0-0.02,0-0.06-0.03-0.09
	c-0.03-0.03-0.08-0.07-0.21-0.07h-0.02c-0.16,0.01-0.25,0.01-0.31,0.01v2.17c0.17,0,0.31,0,0.38,0L22.06,21.75z M21.49,21.74v-2.24
	h0.01l0-0.02v-0.01c0,0-0.02-0.01-0.08-0.01h-0.44l-0.04-0.01c0,0-0.17-0.11-0.34-0.29c-0.08-0.08-0.15-0.17-0.22-0.28v2.87
	c0.3,0,0.65,0,0.96,0H21.49z M15.08,21.74c0.19,0,0.34,0,0.41,0c0.03-0.13,0.14-0.44,0.38-0.76c0.15-0.2,0.37-0.41,0.65-0.56
	c0.29-0.15,0.65-0.26,1.1-0.26h0.04c0.9,0,1.45,0.41,1.76,0.82c0.24,0.32,0.35,0.63,0.38,0.76c0.08,0,0.23,0,0.41,0v-2.33h-5.15
	V21.74z M15.35,44.26c0.38,0.13,1.06,0.05,1.17,0c0.11-0.05,0.4-0.24,0.81-0.08c0.4,0.16,0.64,0.02,0.88,0
	c0.24-0.02,0.39-0.17,0.39-0.17s0.44,0.04,1.01,0c0.58-0.04,0.45-0.24,0.45-0.24c0-0.09-0.74-0.33-1.04-0.28
	c-0.29,0.05-0.51-0.06-0.75-0.19c-0.24-0.13-0.59-0.26-0.77-0.25c-0.19,0.01-0.35,0.16-0.55,0.05c-0.19-0.11-0.7,0-0.82,0.09
	c-0.11,0.09-0.45,0.15-0.78,0.11c-0.34-0.04-0.52,0.13-0.63,0.22c-0.12,0.09-0.27,0.24-0.45,0.24c-0.18,0-0.44,0.28-0.44,0.28
	s0.26,0.09,0.43,0.09C14.41,44.14,14.97,44.13,15.35,44.26"/>
</svg>
